<?xml version="1.0" standalone="no"?>
<!DOCTYPE svg PUBLIC "-//W3C//DTD SVG 20010904//EN"
 "http://www.w3.org/TR/2001/REC-SVG-20010904/DTD/svg10.dtd">
<svg version="1.0" xmlns="http://www.w3.org/2000/svg"
 width="600.000000pt" height="600.000000pt" viewBox="0 0 600.000000 600.000000"
 preserveAspectRatio="xMidYMid meet">
<g transform="translate(0.000000,600.000000) scale(0.100000,-0.100000)"
fill="#000000" stroke="none">
<path d="M2794 5369 c-45 -4 -121 -15 -170 -25 -49 -9 -110 -18 -136 -18 -25
-1 -42 -4 -36 -7 12 -8 -15 -19 -45 -19 -12 0 -35 -7 -51 -15 -16 -9 -31 -13
-34 -10 -3 3 -11 0 -18 -6 -7 -6 -28 -11 -47 -12 -19 -1 -33 -5 -30 -9 2 -5
-5 -8 -17 -8 -11 0 -46 -13 -78 -29 -31 -15 -63 -26 -71 -23 -8 2 -11 0 -7 -6
3 -5 -1 -13 -10 -16 -24 -9 -31 -7 -14 4 9 6 10 10 3 10 -6 0 -15 -5 -18 -10
-4 -6 -11 -7 -17 -4 -6 4 -8 3 -5 -3 8 -13 -37 -38 -52 -29 -6 4 -11 0 -11 -8
0 -9 -3 -15 -7 -14 -11 2 -84 -33 -105 -51 -10 -8 -18 -11 -18 -6 0 4 -7 2
-15 -5 -8 -7 -15 -10 -15 -7 0 4 -10 -4 -23 -16 -13 -12 -21 -26 -18 -32 3 -5
-8 -1 -24 9 -24 16 -27 16 -16 3 9 -12 10 -17 2 -17 -7 0 -9 -4 -6 -10 3 -5
-1 -10 -9 -10 -9 0 -16 -5 -16 -11 0 -6 -7 -8 -16 -5 -8 3 -12 2 -9 -4 9 -14
-8 -12 -25 3 -12 10 -12 9 -3 -3 7 -9 9 -20 5 -26 -8 -12 -43 -28 -54 -26 -5
1 -8 -4 -8 -12 0 -7 -14 -19 -30 -26 -17 -7 -33 -17 -37 -23 -4 -6 -1 -7 7 -2
9 5 11 4 6 -3 -4 -7 -14 -12 -22 -12 -9 0 -12 -5 -8 -12 5 -8 2 -9 -9 -5 -9 3
-16 3 -14 -2 3 -12 -65 -71 -76 -64 -6 3 -7 1 -3 -6 12 -18 -14 -44 -30 -30
-10 8 -12 6 -9 -10 3 -19 -5 -26 -27 -22 -4 0 -5 -5 -2 -13 6 -15 -42 -50 -56
-41 -6 4 -7 11 -4 17 5 7 2 8 -5 3 -10 -6 -10 -11 2 -22 12 -13 10 -19 -16
-49 -17 -19 -35 -34 -41 -34 -6 0 -4 5 4 10 8 5 10 10 4 10 -6 0 -19 -10 -30
-22 -13 -15 -14 -18 -3 -10 14 10 18 10 23 -3 3 -9 2 -14 -2 -11 -4 2 -16 -2
-27 -10 -12 -9 -14 -14 -5 -14 8 0 2 -13 -17 -32 -17 -18 -51 -64 -75 -103
-25 -38 -52 -76 -61 -84 -9 -7 -14 -17 -11 -22 3 -5 1 -9 -4 -9 -5 0 -13 -8
-16 -17 -12 -35 -36 -68 -46 -65 -8 1 -8 -4 0 -18 9 -16 8 -19 -6 -13 -12 4
-15 3 -10 -6 9 -14 -14 -67 -44 -98 -11 -13 -15 -23 -9 -23 7 0 2 -8 -9 -19
-22 -19 -30 -37 -12 -26 6 3 10 4 10 1 0 -11 -25 -62 -43 -89 -11 -16 -17 -31
-13 -34 3 -3 -2 -20 -11 -37 -19 -35 -20 -37 -22 -67 0 -11 -5 -18 -9 -15 -5
3 -8 -3 -8 -12 0 -55 -6 -82 -19 -96 -18 -17 -20 -30 -3 -20 8 5 9 2 3 -12 -4
-10 -14 -53 -22 -94 -7 -41 -16 -84 -20 -95 -3 -11 -7 -31 -8 -45 -2 -14 -8
-83 -15 -155 -11 -123 -9 -395 4 -460 4 -16 8 -53 10 -81 2 -28 7 -61 11 -73
4 -13 9 -33 11 -44 6 -37 49 -191 56 -202 3 -5 9 -31 13 -57 4 -28 11 -45 17
-42 6 4 7 -2 3 -16 -5 -15 -4 -20 4 -16 6 4 11 1 11 -6 0 -7 6 -24 13 -38 7
-14 12 -32 12 -40 0 -8 2 -17 5 -20 16 -15 40 -70 30 -70 -6 0 -2 -10 10 -22
11 -12 20 -25 20 -30 0 -4 16 -33 36 -64 20 -31 31 -53 24 -49 -7 4 -5 -6 6
-24 10 -17 22 -31 27 -31 5 0 6 -7 3 -16 -3 -8 -2 -13 3 -10 5 3 18 -13 30
-37 12 -23 21 -37 21 -32 0 6 9 -5 20 -22 11 -18 17 -39 14 -47 -3 -8 -1 -17
5 -21 7 -3 8 0 5 9 -11 30 3 16 35 -34 18 -28 37 -50 42 -50 6 0 7 -5 3 -12
-5 -7 -3 -8 6 -3 9 6 12 4 8 -7 -4 -8 -2 -21 4 -29 7 -11 8 -9 3 6 -5 17 -3
17 18 -5 13 -14 22 -34 20 -45 -3 -19 -3 -19 5 -1 6 14 11 16 16 8 4 -7 4 -12
0 -12 -4 0 5 -9 20 -21 14 -11 23 -25 20 -31 -4 -7 -2 -8 4 -4 11 6 17 -13 13
-37 -1 -5 3 -6 9 -2 6 3 7 11 4 17 -4 7 -2 8 5 4 6 -4 9 -12 6 -17 -4 -5 1
-12 9 -15 9 -3 16 -11 16 -16 0 -7 -5 -6 -14 1 -10 9 -17 7 -27 -6 -8 -9 -9
-14 -2 -10 6 4 15 3 18 -3 4 -7 12 -7 18 -2 25 18 42 8 42 -25 0 -17 3 -34 6
-37 3 -3 5 8 4 24 l-2 31 39 -38 c21 -20 38 -43 38 -49 0 -7 5 -16 12 -20 7
-4 8 -3 4 4 -16 26 12 10 42 -24 18 -20 32 -32 32 -28 0 4 10 -2 22 -13 13
-11 32 -23 43 -27 16 -6 17 -9 5 -17 -12 -8 -10 -10 8 -6 12 3 19 1 16 -4 -3
-5 3 -12 13 -16 10 -3 29 -15 42 -25 13 -10 28 -15 35 -11 6 4 5 -1 -3 -10
-12 -15 -12 -17 0 -12 8 3 24 -4 36 -15 12 -11 27 -20 32 -20 20 0 80 -33 75
-42 -3 -4 1 -5 9 -2 8 3 20 -2 27 -11 7 -8 17 -15 22 -15 10 0 127 -52 170
-75 14 -8 33 -15 42 -15 26 0 66 -22 59 -33 -3 -6 -1 -7 5 -3 6 4 35 0 64 -10
106 -33 234 -65 266 -67 17 -1 32 -4 32 -7 0 -3 16 -6 36 -8 19 -1 44 -7 55
-12 10 -6 19 -7 19 -2 0 6 19 6 48 0 40 -7 93 -11 287 -20 36 -2 208 13 323
28 62 8 123 12 135 9 18 -5 19 -4 7 5 -12 9 -7 10 20 5 23 -4 30 -3 21 3 -9 7
0 11 33 16 25 4 48 7 51 6 3 0 19 6 35 15 16 8 33 14 37 13 4 -1 40 9 78 22
39 14 75 25 80 25 6 1 25 9 44 19 18 10 45 20 59 22 15 3 29 9 32 13 3 5 22
14 43 22 20 7 37 17 37 22 0 5 7 6 15 3 9 -3 18 1 21 9 4 8 10 12 15 9 5 -3 9
0 9 7 0 8 4 8 15 -1 13 -11 14 -10 9 4 -5 12 0 16 19 16 13 0 30 7 38 16 7 8
36 28 63 42 68 36 67 36 64 22 -2 -7 3 -14 10 -16 7 -1 8 0 2 3 -7 3 -7 10 2
21 10 12 10 14 1 8 -7 -4 -13 -2 -13 4 0 6 8 14 18 17 9 4 20 12 25 19 4 7 16
11 27 9 11 -2 19 -1 18 3 -2 4 10 21 26 37 16 17 26 24 22 18 -4 -7 -2 -13 4
-13 6 0 15 10 20 23 5 12 9 19 9 15 1 -4 12 3 25 15 75 69 93 82 110 85 13 3
17 -1 13 -12 -3 -8 -2 -18 2 -20 5 -3 8 4 7 15 0 11 -7 24 -15 28 -9 6 -10 11
-2 15 6 4 11 4 11 0 0 -4 11 3 25 16 14 13 25 20 25 16 0 -5 7 -3 15 4 12 10
15 10 15 0 0 -8 3 -10 6 -7 4 4 2 13 -5 21 -9 11 -6 19 17 38 16 13 27 29 25
35 -2 6 5 16 16 22 11 6 23 20 26 32 4 12 13 18 20 15 8 -3 19 3 27 12 12 15
11 16 -4 3 -10 -7 -18 -9 -18 -3 0 15 26 33 36 24 5 -4 6 -3 2 1 -6 8 20 47
78 122 9 11 20 30 25 43 5 13 13 20 19 17 6 -4 7 1 3 11 -4 10 -2 15 3 11 6
-3 16 -1 24 5 12 8 12 9 -2 4 -22 -7 -23 1 -4 20 8 7 16 10 19 6 2 -4 2 -1 1
6 -4 15 15 52 35 68 8 6 11 16 7 22 -10 17 13 25 32 11 16 -13 16 -12 1 6 -13
17 -14 24 -4 43 9 17 14 20 19 10 3 -7 4 -3 2 9 -2 13 4 33 14 46 10 12 30 52
44 87 15 36 33 76 40 90 7 14 11 31 9 38 -3 6 0 12 5 12 6 0 13 14 17 30 4 17
10 28 14 25 5 -2 6 7 3 20 -2 14 0 31 5 38 11 13 19 43 29 103 3 21 9 41 13
44 3 3 7 14 9 25 2 11 4 27 6 35 1 8 8 49 15 90 6 41 17 105 23 142 7 44 9
140 4 280 -7 222 -8 244 -27 345 -6 34 -8 67 -3 74 4 8 3 10 -4 5 -8 -5 -12 1
-12 17 0 13 -9 59 -21 103 -11 43 -22 90 -23 104 -2 14 -5 25 -6 25 -2 0 -10
35 -12 57 -1 9 -6 14 -12 11 -5 -4 -7 1 -3 10 3 10 2 17 -3 17 -4 0 -11 14
-15 31 -4 16 -18 58 -32 91 -13 34 -25 69 -26 79 -1 10 -4 16 -8 13 -11 -6
-47 78 -44 104 2 19 0 20 -13 10 -13 -11 -14 -10 -3 9 9 18 9 22 -2 17 -8 -3
-21 10 -33 33 -10 21 -31 55 -46 77 -16 21 -28 45 -28 53 0 8 -4 12 -9 9 -5
-4 -15 7 -22 23 -7 16 -18 27 -24 23 -5 -3 -4 1 3 10 11 14 10 17 -7 23 -24 7
-49 45 -31 45 6 0 8 5 5 10 -4 6 -10 8 -15 5 -5 -3 -21 12 -37 32 -15 21 -32
40 -36 41 -4 2 -3 10 4 18 10 12 9 13 -4 8 -20 -7 -71 47 -54 58 6 4 14 2 18
-3 4 -6 9 -3 13 7 4 10 4 15 0 11 -4 -4 -14 -1 -22 6 -13 9 -14 9 -8 0 6 -12
1 -15 -21 -12 -5 1 -7 5 -5 11 1 5 -2 7 -7 4 -5 -4 -12 3 -16 14 -4 11 -11 18
-16 14 -6 -3 -9 2 -7 11 2 10 -4 20 -12 22 -13 4 -13 3 0 -6 8 -6 10 -11 4
-11 -16 0 -35 25 -26 34 4 4 0 6 -8 4 -8 -2 -14 3 -12 10 1 8 -2 11 -9 6 -9
-5 -10 -2 -6 9 4 12 2 14 -11 10 -14 -6 -15 -4 -4 9 17 21 -8 44 -27 25 -10
-9 -15 -8 -26 7 -8 10 -12 23 -8 29 3 6 1 7 -5 3 -6 -3 -13 -2 -17 4 -6 9 8
14 28 11 5 -1 6 3 2 9 -3 6 -11 7 -17 4 -6 -4 -14 -1 -18 6 -5 8 -9 7 -13 -5
-5 -10 -3 -14 5 -9 7 4 8 3 4 -5 -10 -15 -27 -4 -24 16 2 9 -4 18 -12 20 -13
4 -13 3 0 -6 8 -6 12 -11 7 -11 -14 0 -86 57 -80 64 3 3 1 7 -5 7 -7 1 -16 2
-21 3 -6 0 -19 11 -31 24 -11 12 -25 22 -31 22 -6 0 -7 5 -4 10 4 6 3 10 -2 9
-4 -1 -15 -1 -23 1 -11 1 -10 4 5 11 16 7 13 8 -12 5 -18 -3 -35 0 -39 6 -5 7
-2 8 7 3 8 -5 11 -4 6 1 -5 5 -12 9 -15 9 -15 1 -82 38 -93 51 -6 8 -20 14
-30 14 -10 0 -29 11 -43 25 -25 25 -42 34 -31 15 9 -14 -7 -12 -28 4 -14 11
-15 15 -5 20 7 3 4 5 -7 3 -11 -2 -26 2 -33 9 -7 7 -20 10 -29 7 -10 -4 -14
-2 -10 4 4 7 0 10 -10 9 -15 -2 -48 10 -93 33 -9 5 -30 12 -48 16 -18 3 -32
10 -32 14 0 4 -14 8 -30 8 -17 0 -40 5 -53 10 -38 19 -61 26 -74 24 -7 -1 -13
2 -13 7 0 10 -55 22 -95 22 -11 0 -72 10 -135 21 -124 23 -400 32 -556 18z
m511 -34 c445 -63 863 -246 1195 -523 186 -155 386 -386 512 -592 318 -519
418 -1206 263 -1805 -49 -188 -137 -421 -156 -410 -4 3 -11 0 -15 -6 -4 -8 -3
-9 4 -5 19 11 15 -1 -28 -85 -148 -293 -388 -577 -662 -783 -445 -334 -943
-491 -1503 -473 -718 23 -1362 361 -1801 947 -171 228 -315 531 -389 820 -61
235 -84 489 -66 723 14 183 21 225 72 436 109 452 346 846 704 1172 322 293
732 491 1175 568 151 27 162 27 395 29 127 1 236 -4 300 -13z m1299 -554 c3
-5 -1 -11 -9 -14 -9 -4 -12 -1 -8 9 6 16 10 17 17 5z m96 -3455 c0 -3 -4 -8
-10 -11 -5 -3 -10 -1 -10 4 0 6 5 11 10 11 6 0 10 -2 10 -4z"/>
<path d="M3412 5284 c4 -3 21 -8 39 -11 18 -2 43 -9 56 -14 13 -5 23 -5 23 0
0 5 -23 14 -50 20 -57 12 -76 14 -68 5z"/>
<path d="M3355 5250 c-3 -6 1 -7 9 -4 9 3 16 2 16 -4 0 -13 97 -25 117 -13 12
7 8 8 -18 7 -19 -1 -51 4 -73 11 -46 16 -43 15 -51 3z"/>
<path d="M3565 5250 c3 -5 14 -10 23 -10 15 0 15 2 2 10 -20 13 -33 13 -25 0z"/>
<path d="M2870 5243 c-253 -17 -463 -65 -710 -160 -268 -103 -524 -274 -745
-497 -351 -353 -568 -789 -639 -1283 -19 -130 -21 -414 -5 -561 11 -107 47
-280 83 -399 155 -515 504 -966 974 -1256 357 -221 743 -329 1177 -329 484 -1
921 141 1310 425 309 226 527 483 696 819 236 470 296 1040 164 1558 -136 535
-475 1010 -940 1317 -123 82 -336 188 -474 238 -278 99 -614 148 -891 128z
m520 -57 c74 -14 136 -30 138 -36 2 -5 15 -7 28 -4 13 4 37 2 52 -4 15 -6 36
-13 47 -18 11 -4 31 -9 45 -11 13 -2 30 -9 37 -15 7 -5 17 -7 23 -3 6 4 9 1 8
-7 -2 -7 6 -13 17 -13 11 0 23 -4 26 -8 3 -4 15 -9 27 -10 11 0 19 -4 16 -8
-2 -4 10 -11 28 -14 18 -4 38 -12 45 -17 7 -5 18 -6 24 -2 9 5 10 2 6 -9 -3
-9 -1 -19 5 -23 7 -4 8 -3 4 4 -10 16 7 15 23 0 11 -11 12 -10 6 1 -6 10 -4
12 4 7 7 -5 10 -14 7 -21 -3 -9 2 -11 15 -8 11 3 32 -5 52 -19 17 -14 42 -28
55 -32 12 -4 22 -12 22 -17 0 -5 6 -9 13 -9 22 0 88 -51 81 -62 -4 -6 -3 -8 4
-5 15 10 42 -3 42 -20 0 -8 4 -12 9 -9 5 3 20 -3 33 -14 14 -11 29 -16 33 -12
5 4 5 2 1 -5 -3 -7 2 -14 14 -18 11 -4 18 -11 15 -16 -4 -5 2 -12 12 -15 30
-9 46 -19 42 -27 -2 -4 11 -16 29 -27 19 -12 30 -25 26 -31 -4 -7 -1 -10 7 -7
19 6 60 -33 62 -60 0 -11 5 -18 11 -15 5 4 7 -2 3 -13 -7 -18 -6 -18 6 -2 13
16 16 15 43 -14 16 -17 23 -28 16 -23 -11 6 -12 3 -3 -14 12 -22 27 -30 16 -8
-4 6 5 -1 20 -17 14 -16 24 -35 21 -43 -3 -8 -1 -11 4 -8 6 3 10 1 10 -5 0 -6
5 -8 10 -5 6 3 10 -1 10 -10 0 -10 -5 -13 -12 -9 -7 4 -8 3 -4 -4 4 -6 13 -9
21 -5 11 4 13 1 8 -13 -4 -11 -3 -15 4 -11 6 4 17 -1 24 -10 12 -14 12 -16 -1
-9 -8 5 0 -6 18 -23 22 -20 32 -37 28 -47 -4 -11 -2 -15 8 -11 10 4 19 -5 28
-28 6 -19 16 -35 20 -35 4 0 8 -7 8 -16 0 -8 5 -12 10 -9 6 3 10 -3 10 -14 0
-11 4 -22 9 -25 18 -12 63 -114 55 -128 -5 -9 -2 -9 11 2 10 8 16 10 12 3 -4
-6 -3 -14 3 -18 5 -3 10 -11 10 -16 0 -6 -4 -7 -10 -4 -6 4 -7 -1 -3 -11 5
-13 3 -15 -7 -9 -9 5 -11 4 -6 -4 5 -8 12 -9 20 -2 8 7 17 -1 29 -30 10 -22
14 -45 11 -51 -4 -7 -2 -8 4 -4 7 4 14 -4 18 -21 4 -15 15 -45 25 -65 18 -35
18 -37 2 -31 -15 5 -14 2 4 -18 12 -13 24 -37 28 -54 4 -16 13 -47 21 -67 8
-22 10 -39 4 -43 -10 -6 -2 -36 11 -45 7 -5 18 -61 35 -170 2 -14 6 -52 9 -84
3 -32 8 -63 11 -67 6 -10 5 -291 -1 -334 -2 -16 -7 -57 -10 -90 -16 -174 -50
-295 -78 -278 -6 3 -7 1 -3 -5 4 -6 13 -9 21 -5 21 7 19 -4 -7 -40 -12 -17
-17 -27 -10 -23 7 4 12 6 12 4 -1 -15 -32 -104 -41 -115 -7 -7 -9 -16 -6 -20
3 -3 -1 -19 -9 -35 -8 -16 -12 -34 -8 -40 5 -7 3 -8 -6 -3 -10 6 -12 4 -7 -8
3 -10 2 -17 -3 -17 -6 0 -9 -3 -8 -7 3 -13 -25 -83 -34 -83 -4 0 -12 -10 -19
-21 -7 -15 -8 -19 0 -15 7 5 9 1 5 -8 -3 -9 -9 -14 -13 -12 -4 3 -13 -5 -21
-17 -12 -20 -12 -21 4 -8 12 10 10 0 -9 -40 -14 -30 -30 -53 -36 -51 -6 1 -8
-2 -4 -8 8 -13 -14 -42 -26 -34 -5 3 -6 -2 -3 -9 5 -13 -56 -112 -79 -128 -5
-3 -8 -9 -7 -13 1 -4 -6 -18 -16 -31 -15 -20 -21 -22 -34 -12 -13 11 -13 10 0
-7 13 -17 13 -20 -8 -34 -12 -8 -22 -21 -22 -29 0 -10 -6 -13 -16 -9 -8 3 -12
2 -9 -4 3 -5 -3 -18 -14 -29 -11 -11 -17 -22 -14 -25 3 -3 -4 -3 -16 -1 -13 2
-19 0 -15 -6 9 -16 -17 -40 -37 -34 -9 3 -21 0 -25 -6 -5 -9 -2 -10 9 -6 9 3
19 2 22 -3 4 -6 -1 -10 -9 -10 -9 0 -16 -5 -16 -11 0 -5 5 -7 12 -3 7 4 8 3 4
-5 -4 -6 -11 -9 -16 -6 -5 3 -11 1 -15 -5 -4 -6 -11 -7 -17 -4 -6 4 -8 3 -5
-3 8 -13 -21 -53 -39 -53 -8 0 -14 5 -14 12 0 6 -3 8 -6 5 -4 -4 -1 -14 7 -24
12 -15 12 -16 -3 -10 -11 4 -17 2 -15 -6 1 -7 -4 -11 -11 -9 -8 1 -11 -1 -9
-5 6 -10 -21 -49 -31 -45 -4 2 -14 9 -22 15 -13 10 -13 10 -2 -4 10 -13 10
-18 -1 -28 -8 -6 -18 -7 -22 -3 -5 4 -5 1 -1 -6 4 -7 0 -15 -11 -19 -10 -4
-26 -15 -35 -26 -10 -11 -18 -16 -18 -11 0 5 -7 1 -15 -10 -8 -10 -19 -15 -26
-10 -8 4 -10 3 -5 -4 4 -7 2 -12 -4 -12 -6 0 -21 -11 -34 -25 -25 -27 -41 -33
-31 -12 4 6 -1 3 -9 -7 -9 -11 -16 -17 -16 -13 0 3 -11 -5 -25 -18 -27 -28
-44 -31 -65 -12 -12 10 -12 9 -2 -4 11 -14 7 -20 -25 -40 -89 -53 -98 -56
-124 -41 -23 13 -23 13 -5 -2 11 -9 17 -17 13 -17 -14 -3 -22 -6 -58 -22 -20
-9 -49 -14 -65 -11 -21 3 -25 2 -14 -5 8 -5 19 -7 25 -4 7 4 7 3 0 -4 -5 -6
-28 -16 -50 -23 -22 -7 -45 -16 -50 -21 -6 -4 -22 -10 -35 -13 -14 -3 -41 -10
-60 -15 -19 -6 -44 -8 -55 -5 -14 4 -16 3 -7 -4 9 -6 -14 -15 -75 -26 -48 -10
-105 -22 -126 -27 -100 -26 -601 -34 -646 -10 -17 10 -21 10 -16 1 5 -9 3 -9
-11 -2 -11 5 -48 13 -84 16 -35 4 -69 10 -75 14 -5 3 -25 5 -43 3 -23 -2 -32
1 -28 8 4 6 -1 12 -11 12 -27 3 -56 5 -71 7 -7 1 -10 7 -6 14 5 8 2 9 -9 5
-21 -8 -228 64 -220 77 3 5 1 6 -5 2 -11 -7 -84 23 -78 33 2 3 -7 7 -21 8 -14
0 -30 7 -37 13 -8 10 -7 11 9 6 16 -6 18 -5 8 5 -10 10 -16 10 -25 1 -9 -9
-19 -6 -44 13 -18 14 -35 25 -38 25 -14 0 -196 115 -196 123 0 5 6 5 13 -1 9
-8 17 -8 27 0 12 8 12 9 -2 4 -10 -3 -20 -1 -23 5 -4 5 -11 7 -16 3 -13 -8
-61 24 -54 36 3 6 1 18 -5 27 -9 16 -10 15 -5 -4 4 -14 2 -23 -4 -23 -6 0 -11
5 -11 12 0 6 -3 8 -7 5 -9 -10 -34 14 -26 26 4 6 1 7 -6 3 -8 -5 -24 5 -42 25
-17 19 -35 34 -40 34 -5 0 -17 12 -27 28 -10 15 -21 25 -24 22 -7 -8 -29 20
-32 41 -2 10 -11 18 -20 20 -10 1 -26 10 -37 20 -15 13 -16 20 -8 31 10 11 8
12 -6 7 -13 -5 -16 -4 -11 4 5 8 1 10 -10 5 -13 -5 -16 -2 -12 9 4 10 -2 19
-18 27 -13 6 -24 16 -24 23 0 9 3 8 11 -2 9 -13 10 -13 6 0 -2 8 -10 14 -18
13 -8 -1 -25 13 -39 30 -13 18 -18 28 -9 22 8 -5 1 3 -16 18 -16 16 -23 26
-15 22 8 -4 0 6 -18 22 -18 15 -32 32 -32 36 0 4 -9 20 -20 35 -11 15 -21 37
-23 50 -2 12 -10 28 -17 35 -12 10 -12 9 -5 -3 6 -9 0 -4 -13 10 -12 14 -21
33 -18 43 2 9 1 15 -3 13 -8 -5 -61 93 -61 113 0 7 -5 9 -12 5 -7 -4 -8 -3 -4
4 4 7 -4 31 -18 55 -14 24 -23 46 -20 50 4 3 -1 14 -10 23 -10 9 -15 22 -12
30 3 7 -2 18 -10 25 -12 10 -12 14 -2 20 10 7 8 9 -5 9 -12 0 -17 7 -16 18 1
9 -3 30 -9 45 -7 16 -12 39 -12 52 0 13 -5 27 -10 30 -6 4 -8 11 -5 16 4 5 1
9 -6 9 -7 0 -9 3 -6 6 3 4 3 14 -2 23 -14 27 -23 79 -11 61 6 -9 10 -10 10 -3
0 6 -7 18 -15 27 -9 8 -15 18 -14 21 0 3 -4 36 -10 73 -6 37 -13 94 -17 127
-8 83 -8 437 0 510 10 90 44 252 67 323 12 34 22 69 23 77 1 8 5 17 8 21 4 3
4 13 1 22 -5 11 -3 13 7 7 10 -6 12 -4 8 7 -4 8 0 28 7 44 7 16 16 37 19 47 3
10 10 15 16 12 6 -3 7 0 4 9 -3 9 4 37 17 62 12 26 22 53 22 60 0 7 4 11 8 8
4 -2 10 9 14 26 4 18 11 27 17 24 6 -4 8 -2 5 3 -10 15 69 146 89 149 9 1 19
6 22 10 4 4 -1 4 -10 1 -21 -7 -22 -3 -7 26 19 36 56 76 63 69 4 -3 4 1 0 11
-4 11 -1 17 9 17 8 0 18 12 22 28 8 32 64 94 78 85 6 -3 7 -1 4 4 -4 6 2 21
13 33 11 13 20 27 20 32 0 5 4 7 9 3 5 -3 12 4 16 15 7 24 54 62 66 54 5 -3 6
2 3 10 -3 9 -1 16 6 16 6 0 8 5 4 12 -4 7 -3 8 4 4 7 -4 12 -1 12 9 0 13 4 14
23 4 21 -12 21 -11 7 6 -14 17 -13 18 2 12 11 -4 17 -2 15 6 -1 7 6 11 15 11
10 -1 15 2 12 8 -7 10 14 38 28 38 5 0 6 -5 2 -12 -4 -7 -3 -8 5 -4 9 6 9 11
-1 24 -10 12 -10 14 0 8 7 -4 12 -2 12 4 0 6 4 9 8 6 5 -3 16 3 25 12 34 36
44 41 57 29 10 -9 11 -9 6 1 -9 14 40 66 54 57 4 -3 11 2 14 11 4 10 13 13 25
9 11 -3 22 -1 26 4 3 7 0 8 -9 5 -9 -3 -16 -3 -16 1 0 12 25 32 36 28 6 -2 22
7 36 20 13 13 31 21 38 19 8 -3 10 0 5 8 -5 9 -4 11 3 6 7 -4 24 4 39 18 15
14 49 33 75 43 26 9 45 20 42 25 -3 4 3 5 12 1 10 -4 15 -2 11 4 -6 10 2 13
52 16 16 1 29 6 28 11 -3 11 74 38 91 31 7 -2 10 -1 7 4 -5 9 18 21 38 21 4 0
20 6 35 13 15 8 33 12 41 9 8 -2 11 0 8 5 -3 5 6 10 19 11 14 1 34 6 44 12 13
7 21 7 25 0 3 -5 12 -10 18 -10 7 0 6 4 -3 11 -11 8 -6 9 20 4 26 -5 31 -4 20
4 -8 6 -10 11 -4 11 6 0 49 6 95 14 117 19 216 28 221 19 3 -5 3 -2 1 6 -3 11
34 12 214 8 176 -4 244 -10 353 -31z"/>
<path d="M2870 5170 c-9 -6 -10 -10 -3 -10 6 0 15 5 18 10 8 12 4 12 -15 0z"/>
<path d="M2910 5160 c0 -5 -11 -10 -24 -10 -13 0 -28 -6 -34 -13 -6 -7 -12
-67 -13 -141 -1 -103 2 -132 14 -146 8 -10 13 -21 10 -24 -4 -4 43 -1 57 4 3
2 9 2 13 1 5 -1 5 4 1 10 -5 9 -2 10 12 5 15 -6 17 -5 7 5 -15 15 -17 59 -3
59 6 0 12 0 15 0 3 0 6 -3 7 -7 4 -16 23 -31 32 -25 5 3 7 -5 4 -16 -4 -13 -2
-20 4 -16 5 3 15 -1 21 -9 10 -14 17 -14 51 -2 42 15 68 11 60 -10 -3 -7 -1
-16 5 -20 7 -3 8 0 5 9 -3 9 -2 16 4 16 5 0 13 -7 16 -17 6 -14 9 -14 27 6 11
12 25 19 30 15 5 -3 9 -2 8 3 -1 4 -1 14 0 21 1 17 62 12 69 -6 4 -11 6 -11
13 0 6 9 9 4 9 -15 0 -60 100 -62 106 -2 2 16 -2 35 -7 42 -6 6 -8 17 -4 23 3
5 1 10 -5 10 -7 0 -9 7 -6 16 4 9 1 22 -4 30 -6 7 -10 18 -9 26 1 7 -3 32 -9
54 -7 23 -9 50 -6 60 5 16 4 16 -5 4 -9 -13 -11 -13 -11 1 0 20 -65 35 -84 20
-7 -6 -17 -7 -21 -3 -5 4 -5 2 -1 -5 3 -6 2 -14 -4 -18 -6 -4 -8 -11 -5 -16 3
-5 -1 -6 -10 -3 -11 5 -14 2 -9 -9 3 -9 -4 -28 -15 -44 -11 -15 -38 -59 -60
-97 l-39 -69 -2 134 c-2 160 -2 160 -7 155 -3 -2 -19 0 -36 5 -38 11 -67 -14
-63 -55 2 -14 -2 -31 -9 -36 -10 -8 -15 -3 -23 19 -6 16 -7 32 -4 36 4 3 -2 3
-12 -1 -15 -6 -17 -3 -12 17 3 13 3 18 0 12 -3 -7 -10 -13 -15 -13 -6 0 -8 3
-6 8 3 4 -1 13 -9 20 -8 7 -14 8 -14 2z m68 -121 l62 -91 0 91 0 91 28 0 27 0
1 -140 0 -140 -26 0 c-14 0 -30 8 -37 18 -6 9 -34 50 -62 91 l-51 74 0 -92 0
-91 -30 0 -30 0 1 140 0 140 28 0 c24 0 36 -13 89 -91z m405 -83 c19 -77 34
-142 33 -143 -1 -1 -15 1 -32 5 -21 6 -30 15 -32 35 -3 22 -10 27 -40 32 -20
3 -47 8 -58 10 -16 4 -25 -2 -33 -23 -10 -24 -17 -28 -41 -24 -17 2 -30 6 -30
8 0 3 32 57 71 122 39 64 73 120 75 123 2 4 15 4 28 2 22 -5 27 -17 59 -147z"/>
<path d="M2906 5053 c-6 -14 -5 -15 5 -6 7 7 10 15 7 18 -3 3 -9 -2 -12 -12z"/>
<path d="M3283 4986 l-22 -44 31 -6 c17 -3 34 -6 38 -6 3 0 2 23 -4 50 -5 28
-12 50 -15 50 -4 0 -16 -20 -28 -44z"/>
<path d="M2628 5120 c-16 -5 -28 -6 -28 -3 0 4 -9 -2 -20 -12 -11 -10 -20 -14
-20 -9 0 5 -8 -3 -18 -19 -10 -15 -21 -25 -24 -21 -3 3 -9 -12 -12 -33 -12
-68 -14 -143 -5 -149 5 -3 6 2 3 10 -3 9 -1 16 5 16 6 0 11 -7 11 -16 0 -19
65 -84 84 -84 8 0 22 -7 30 -16 9 -8 16 -11 16 -6 0 9 26 17 85 26 11 1 20 7
21 12 2 22 17 43 27 37 6 -4 8 0 4 9 -3 9 1 24 8 35 17 21 19 59 5 68 -5 3 -7
18 -4 33 4 19 0 33 -10 41 -13 11 -14 17 -5 28 10 11 9 12 -5 7 -15 -6 -21 6
-17 30 1 5 -6 3 -15 -5 -12 -9 -15 -9 -10 -1 5 8 0 12 -18 12 -14 0 -28 5 -31
10 -7 12 -19 12 -57 0z m109 -63 c83 -91 29 -240 -87 -239 -77 1 -124 57 -124
147 0 87 56 140 139 131 30 -4 48 -14 72 -39z"/>
<path d="M2609 5031 c-19 -15 -24 -28 -23 -65 2 -86 64 -126 115 -75 30 30 20
104 -16 137 -32 27 -46 28 -76 3z m75 -52 c-3 -5 -1 -9 3 -9 5 0 9 -13 8 -29
0 -19 -4 -27 -12 -24 -7 3 -13 -2 -13 -11 0 -9 -4 -16 -10 -16 -5 0 -10 5 -10
11 0 5 -4 8 -9 4 -8 -4 -24 24 -26 47 0 3 -3 9 -7 13 -9 9 13 56 23 50 4 -3
11 0 15 6 5 9 13 5 26 -10 10 -13 15 -27 12 -32z"/>
<path d="M2644 4978 c0 -10 1 -18 3 -18 1 0 7 8 12 18 7 13 6 19 -2 19 -7 0
-13 -9 -13 -19z"/>
<path d="M3527 5106 c-4 -10 -1 -13 8 -9 8 3 12 9 9 14 -7 12 -11 11 -17 -5z"/>
<path d="M3543 5077 c1 -7 -5 -10 -13 -9 -8 2 -12 1 -8 -3 3 -4 0 -26 -9 -48
-8 -23 -16 -49 -18 -57 -3 -8 -16 -46 -29 -85 -29 -80 -31 -96 -13 -92 6 1 11
-6 11 -15 -1 -10 2 -15 7 -12 15 9 50 -6 43 -19 -4 -7 -3 -8 2 -4 5 5 9 12 10
15 1 17 28 62 36 62 5 0 6 5 3 10 -3 6 -2 10 4 10 5 0 9 -13 9 -29 -1 -42 24
-75 66 -88 20 -6 34 -7 31 -3 -3 5 0 10 7 12 7 3 13 22 13 45 0 23 -3 39 -6
37 -4 -2 -10 4 -13 13 -4 10 -4 14 0 10 4 -4 13 1 21 11 10 11 12 12 8 2 -4
-10 -2 -9 8 3 17 21 28 22 21 3 -7 -18 12 -30 22 -15 4 8 3 9 -4 5 -16 -10
-15 7 1 23 10 11 9 13 -1 7 -9 -6 -11 1 -7 31 4 21 8 47 9 58 2 11 -4 26 -13
33 -9 8 -10 11 -4 7 9 -4 11 -1 6 11 -4 12 -3 15 5 10 8 -5 10 -2 6 9 -6 14
-8 14 -19 -1 -9 -14 -14 -14 -20 -4 -6 9 -4 11 5 5 9 -5 11 -4 6 4 -4 6 -12 8
-18 5 -6 -4 -14 -1 -18 6 -5 8 -19 14 -32 16 -12 1 -44 9 -70 17 -35 12 -47
13 -45 4z m81 -42 c37 -13 77 -32 87 -41 40 -36 9 -144 -42 -144 -23 0 -23 -3
-4 -65 8 -27 13 -50 11 -52 -1 -1 -16 3 -33 9 -28 10 -32 18 -38 60 -5 34 -13
52 -27 59 -24 13 -24 12 -42 -37 -10 -29 -18 -38 -32 -36 -11 2 -22 7 -26 11
-5 4 72 265 77 261 0 0 31 -11 69 -25z"/>
<path d="M3580 4954 c-14 -40 -15 -38 28 -52 28 -10 35 -9 52 8 30 30 23 52
-23 69 -41 16 -44 14 -57 -25z m62 -8 c7 4 8 2 4 -4 -8 -14 -46 -16 -46 -3 0
12 24 20 28 9 2 -4 9 -5 14 -2z"/>
<path d="M2353 5046 c-17 -14 -32 -23 -35 -21 -3 3 -5 -1 -5 -9 0 -8 6 -12 12
-10 12 5 15 -9 15 -54 0 -13 4 -21 9 -17 6 3 13 -15 17 -40 3 -25 10 -48 15
-51 12 -7 11 -54 -1 -54 -5 0 -10 4 -10 9 0 10 -20 18 -60 26 -16 3 -24 -2
-27 -16 -3 -11 -19 -27 -35 -35 -29 -15 -29 -15 -17 8 l12 23 -23 -20 c-13
-11 -20 -14 -16 -7 4 6 3 12 -1 12 -13 0 -32 58 -26 81 5 17 12 19 39 16 19
-3 32 -2 29 2 -2 4 2 8 9 8 9 0 12 -7 8 -15 -3 -9 5 -5 17 7 19 19 25 21 32
10 6 -9 9 -10 9 -2 0 6 -5 15 -11 19 -6 3 -9 15 -6 25 3 10 1 22 -5 25 -7 4
-6 9 2 14 8 5 7 9 -5 13 -11 5 -14 3 -9 -5 5 -8 2 -9 -12 -4 -19 8 -41 14 -57
15 -5 1 -5 7 -1 14 4 6 -2 4 -13 -5 -11 -10 -26 -18 -34 -18 -19 -1 -40 -18
-74 -63 -22 -30 -28 -48 -26 -83 3 -84 5 -94 19 -94 9 0 13 -7 9 -19 -3 -14
-1 -18 9 -14 8 3 14 0 14 -5 0 -6 9 -13 19 -17 13 -4 18 -12 15 -23 -4 -11 -3
-13 3 -5 6 9 20 9 50 3 50 -12 83 -1 117 35 13 14 29 25 35 25 7 0 9 5 6 10
-3 6 -1 10 4 10 6 0 11 -5 11 -12 0 -6 3 -9 6 -6 3 4 1 15 -5 26 -8 16 -7 21
5 26 24 9 27 7 14 -10 -11 -12 -11 -15 0 -12 7 2 19 -8 27 -22 8 -17 13 -20
13 -9 0 9 8 20 17 23 10 4 14 4 10 0 -4 -4 3 -14 14 -22 26 -18 10 -31 -32
-26 -21 3 -28 0 -23 -8 5 -7 0 -9 -14 -6 -14 4 -20 2 -15 -5 4 -6 0 -8 -10 -4
-10 4 -17 2 -17 -4 0 -6 -7 -8 -16 -5 -10 4 -13 2 -8 -6 5 -8 -2 -9 -22 -4
-20 4 -24 4 -15 -3 11 -7 6 -11 -22 -16 -19 -4 -42 -3 -49 1 -9 5 -8 2 2 -11
14 -17 13 -18 -5 -11 -11 4 -16 4 -12 0 7 -7 -79 -53 -101 -54 -7 0 -11 -4 -8
-8 5 -8 -8 -12 -47 -13 -16 0 -17 -2 -5 -16 12 -15 11 -15 -12 -3 -24 13 -24
12 -10 -5 8 -10 10 -16 4 -12 -7 4 -17 0 -24 -8 -7 -8 -16 -12 -21 -9 -5 3 -9
0 -9 -6 0 -6 -8 -14 -17 -17 -10 -4 -27 -15 -38 -25 -10 -10 -25 -16 -33 -13
-7 2 -10 1 -7 -4 6 -11 -35 -42 -47 -35 -4 3 -5 -3 -1 -12 5 -13 3 -16 -10
-11 -9 3 -19 2 -22 -4 -4 -5 -11 -7 -16 -3 -5 3 3 15 18 27 15 12 30 25 31 30
4 8 62 41 74 42 3 0 9 3 12 7 3 5 3 6 -1 3 -3 -3 -12 0 -19 6 -11 9 -28 0 -76
-38 l-62 -49 -83 105 c-79 99 -82 105 -66 123 9 10 20 17 23 16 6 -2 111 -131
137 -167 1 -2 22 12 47 32 l44 37 16 -24 c16 -25 38 -28 58 -8 7 7 17 12 24
12 7 0 15 6 17 13 4 10 6 10 6 0 1 -7 6 -13 12 -13 5 0 8 4 4 9 -3 5 4 12 15
16 11 4 18 11 15 16 -6 9 7 13 32 10 6 -1 23 13 38 31 15 18 24 28 21 22 -3
-7 2 -18 12 -25 15 -12 16 -12 5 2 -10 12 -10 18 0 28 9 10 9 12 -2 9 -8 -2
-17 6 -19 17 -2 11 -9 25 -14 30 -8 7 -9 5 -4 -5 4 -8 1 -7 -7 3 -15 18 -17
18 -49 1 -18 -10 -36 -18 -40 -19 -3 0 -10 -3 -14 -7 -4 -5 -12 -8 -18 -8 -6
0 6 11 27 24 54 33 27 44 -28 11 -44 -25 -45 -26 -29 -50 9 -14 19 -25 22 -25
2 0 27 14 54 30 57 35 60 36 75 11 11 -17 4 -24 -70 -67 -100 -60 -97 -58 -97
-44 0 6 -29 61 -65 121 -36 61 -65 113 -65 115 0 2 6 4 13 5 6 0 44 20 82 44
69 43 70 43 82 22 10 -20 7 -25 -40 -54 -29 -18 -52 -36 -51 -40 1 -4 5 -18 9
-30 l7 -22 53 30 54 30 16 -30 c8 -17 21 -31 27 -31 6 0 8 3 5 7 -4 3 -1 13 6
21 7 10 8 13 1 9 -7 -4 -18 1 -25 10 -10 12 -10 14 -1 9 6 -4 12 -3 12 2 0 12
-29 24 -41 17 -5 -4 -6 1 -3 10 5 11 2 14 -10 9 -9 -3 -14 -9 -12 -13 3 -4 -5
-13 -17 -21 -21 -12 -21 -12 -7 6 8 10 23 26 33 35 15 12 17 22 11 40 -4 13
-7 27 -6 31 1 5 -1 7 -6 6 -4 0 -15 2 -26 7 -11 5 -21 3 -26 -5 -4 -7 -13 -10
-18 -6 -6 4 -16 -3 -22 -14 -6 -11 -17 -20 -25 -20 -8 0 -15 -5 -15 -11 0 -5
-4 -8 -9 -4 -5 3 -13 1 -16 -5 -4 -6 -16 -8 -28 -5 -18 5 -19 4 -7 -4 13 -10
11 -14 -10 -30 -22 -18 -23 -21 -7 -26 24 -10 10 -27 -16 -20 -20 5 -20 5 -4
-5 10 -7 21 -9 24 -6 6 6 43 -37 43 -50 0 -4 8 -16 18 -27 9 -11 12 -18 7 -14
-13 7 -14 -37 -2 -49 4 -5 5 -1 2 8 -4 9 -2 19 4 23 6 3 11 -1 11 -9 0 -9 6
-16 13 -16 7 0 4 -7 -7 -15 -16 -12 -22 -12 -35 -2 -14 10 -14 10 -4 -4 10
-12 9 -18 -7 -32 -18 -15 -20 -15 -36 6 -11 15 -15 17 -11 5 4 -11 1 -18 -7
-18 -19 0 -39 27 -30 41 4 8 3 9 -5 5 -19 -12 -41 17 -28 40 10 18 9 18 -8 4
-17 -14 -18 -13 -11 5 4 11 4 16 0 13 -4 -4 -16 -1 -28 7 -28 20 -42 19 -66
-7 -22 -24 -21 -58 3 -86 15 -19 19 -64 4 -56 -7 4 -8 3 -4 -1 4 -5 14 -10 22
-11 11 -2 12 2 5 16 -25 47 -1 39 29 -10 14 -22 29 -36 35 -33 6 4 5 -1 -2
-10 -15 -17 -8 -38 11 -36 9 0 8 2 -1 6 -6 2 -10 8 -7 12 2 5 25 -12 50 -36
38 -36 49 -42 61 -32 8 7 14 7 14 1 0 -14 -25 -33 -33 -25 -4 3 -7 -2 -7 -13
0 -16 -2 -15 -17 6 -10 14 -17 29 -15 33 1 5 -2 6 -7 3 -5 -4 -12 -2 -16 4 -3
5 -1 10 6 10 15 0 4 13 -14 16 -7 2 -22 5 -34 8 -15 3 -23 0 -23 -9 0 -19 -17
-28 -26 -14 -4 8 -3 9 4 5 7 -4 12 -1 12 8 0 29 -16 24 -63 -21 l-47 -44 22
-19 c13 -11 26 -19 29 -20 3 0 25 22 49 50 43 50 44 50 62 30 19 -20 18 -21
-49 -91 l-68 -70 -98 98 -97 97 67 68 c63 64 68 67 85 51 18 -16 17 -19 -29
-65 l-47 -48 22 -23 23 -22 39 42 c30 32 41 38 50 28 6 -7 23 -12 38 -12 15 0
21 2 14 4 -6 3 -10 9 -7 14 4 5 0 6 -8 3 -8 -3 -17 2 -20 10 -8 20 -31 20 -47
1 -7 -8 -18 -15 -24 -15 -6 1 -1 9 12 20 21 17 40 86 20 74 -5 -3 -15 2 -23
12 -11 16 -17 16 -39 6 -34 -15 -49 -15 -40 1 4 6 3 8 -1 4 -13 -11 -15 -38
-3 -31 7 5 8 2 4 -5 -5 -7 -14 -10 -22 -7 -9 3 -11 0 -7 -11 5 -12 2 -15 -13
-11 -10 3 -25 7 -33 9 -7 2 -16 -3 -18 -11 -3 -10 -2 -11 4 -3 5 7 14 9 22 4
18 -12 18 -16 -3 -40 -15 -17 -22 -19 -35 -9 -13 10 -14 10 -4 -2 14 -15 18
-34 6 -27 -5 3 -8 -8 -8 -23 0 -15 3 -26 8 -23 12 7 8 -12 -5 -27 -11 -12 -10
-12 5 0 10 7 15 20 12 28 -5 12 -3 13 10 2 14 -12 14 -15 -2 -34 -15 -17 -15
-19 -1 -8 14 11 21 10 43 -4 l26 -17 -23 -26 -23 -26 23 19 c12 11 22 14 22 8
0 -14 -41 -43 -52 -36 -4 3 -8 0 -8 -6 0 -6 -5 -8 -10 -5 -8 5 -7 11 1 21 9
11 9 14 -1 14 -8 0 -11 3 -7 6 9 9 -25 44 -43 44 -9 0 -25 -7 -36 -15 -10 -8
-27 -15 -36 -15 -11 0 -15 -5 -12 -15 4 -8 -1 -17 -10 -21 -9 -3 -16 -12 -16
-19 0 -7 -9 -24 -21 -39 -14 -18 -16 -24 -5 -20 10 4 15 0 15 -13 1 -60 16
-89 37 -72 8 7 14 7 14 1 0 -20 45 -21 84 -2 l38 19 -22 -24 c-18 -19 -20 -29
-13 -51 13 -40 35 -51 70 -34 15 7 34 12 42 11 7 -1 10 2 7 8 -3 5 0 16 7 23
8 8 20 26 28 40 12 23 16 25 32 13 13 -9 15 -15 6 -20 -6 -4 -15 -1 -20 6 -5
8 -9 10 -10 4 0 -5 -2 -18 -4 -28 -2 -9 1 -15 6 -11 5 3 6 10 3 16 -4 7 -2 8
4 4 8 -5 0 -22 -25 -51 -30 -37 -39 -42 -52 -33 -13 10 -14 10 -4 -1 6 -7 9
-20 6 -28 -5 -12 -7 -12 -15 -1 -7 9 -8 8 -4 -6 4 -11 2 -22 -4 -26 -6 -4 -12
-13 -14 -21 -1 -8 -11 -30 -21 -49 -11 -19 -25 -47 -32 -62 -7 -16 -17 -28
-23 -28 -6 0 -9 -3 -6 -8 6 -10 -29 -84 -36 -76 -4 3 -4 -4 -1 -17 5 -17 3
-20 -7 -14 -8 5 -11 4 -7 -1 3 -6 -5 -41 -19 -80 -13 -38 -24 -79 -24 -92 0
-15 -4 -21 -11 -16 -7 4 -10 1 -7 -7 3 -8 1 -27 -4 -44 -42 -141 -72 -455 -54
-555 4 -19 8 -62 11 -95 5 -76 10 -106 28 -180 9 -33 14 -62 11 -64 -2 -2 0
-9 5 -15 12 -16 51 -142 51 -166 0 -14 4 -19 12 -14 8 5 9 0 6 -14 -4 -12 -3
-22 2 -22 4 0 11 -12 14 -26 4 -15 14 -33 21 -41 17 -16 20 -37 5 -28 -6 3 -7
-1 -4 -9 3 -9 10 -14 14 -11 4 3 13 -9 19 -27 6 -17 23 -47 37 -65 14 -19 24
-37 21 -40 -3 -2 2 -13 11 -24 9 -11 20 -29 23 -42 3 -12 11 -21 17 -19 7 1
12 -3 12 -8 0 -6 10 -24 21 -39 13 -17 18 -34 14 -42 -5 -7 -4 -10 2 -6 14 9
55 -23 49 -39 -3 -8 0 -11 10 -7 10 4 12 0 8 -11 -4 -10 -1 -16 9 -16 8 0 17
-9 20 -21 3 -12 10 -18 15 -15 5 3 17 -3 26 -13 16 -18 13 -31 -8 -31 -6 0 -5
4 2 9 11 6 10 10 -1 19 -11 9 -13 7 -12 -11 1 -14 8 -22 21 -22 18 0 117 -91
128 -118 3 -8 5 -8 5 2 1 11 4 11 16 1 13 -11 13 -15 3 -23 -10 -6 -9 -8 4 -4
9 3 24 -1 35 -9 10 -9 12 -12 4 -8 -9 5 -12 3 -7 -5 4 -6 11 -9 16 -6 12 7 61
-35 54 -47 -4 -7 -2 -8 5 -4 13 9 43 -18 33 -29 -4 -5 -1 -5 6 -1 6 4 25 -2
41 -13 15 -11 31 -18 35 -14 3 3 6 1 6 -6 0 -7 5 -9 10 -6 6 3 10 1 10 -5 0
-7 -9 -9 -22 -5 -16 4 -19 3 -9 -3 11 -8 11 -11 0 -16 -8 -3 -3 -3 10 0 17 5
21 3 16 -6 -5 -9 -4 -11 4 -6 6 4 8 12 5 18 -11 17 36 -2 78 -33 22 -15 52
-31 69 -34 17 -4 26 -11 23 -17 -4 -7 -2 -8 5 -4 7 4 31 -1 54 -12 23 -10 55
-22 70 -26 17 -4 25 -11 21 -18 -4 -6 -3 -8 3 -5 6 4 41 -3 79 -14 94 -28 289
-66 344 -68 24 0 49 -6 54 -11 6 -6 15 -10 20 -10 7 0 7 3 -1 8 -6 4 41 7 105
7 144 1 217 8 352 36 58 11 120 22 138 23 18 2 36 7 40 11 4 5 1 5 -7 0 -10
-6 -12 -4 -7 4 4 7 15 11 24 10 34 -4 104 14 90 22 -9 6 -7 9 8 9 11 0 24 3
28 7 7 7 30 14 58 16 9 1 14 6 11 11 -4 6 1 6 13 2 10 -4 15 -4 11 0 -9 10 26
30 95 56 15 6 26 14 23 18 -3 4 1 8 8 7 32 -1 47 4 47 17 0 8 6 16 13 18 18 7
38 -2 31 -14 -4 -7 -2 -8 4 -4 6 4 8 14 5 23 -5 12 -3 14 7 8 8 -5 11 -4 7 2
-4 6 1 17 10 24 14 12 16 12 9 -1 -4 -8 2 -4 13 9 12 13 21 19 21 15 0 -5 4
-4 8 2 14 22 100 82 108 76 4 -4 4 -1 0 6 -4 6 -3 12 2 12 6 0 38 28 73 62 34
35 59 58 56 52 -4 -7 1 -18 11 -25 15 -13 16 -12 4 3 -15 19 -7 26 25 23 12
-1 20 2 17 6 -2 4 2 10 8 13 7 2 4 4 -7 3 -11 -1 -21 3 -22 8 -2 6 3 10 10 10
6 0 12 5 12 12 0 6 4 15 9 20 5 5 6 2 1 -6 -5 -9 -4 -12 3 -7 7 4 12 14 12 22
0 8 7 14 15 14 8 0 14 6 12 13 -1 6 4 11 12 9 14 -3 31 14 31 32 0 6 -7 1 -15
-10 -8 -10 -15 -14 -15 -7 0 14 40 44 51 38 4 -3 6 3 4 12 -1 10 9 30 22 45
14 14 22 31 18 37 -4 7 -1 10 7 9 7 -2 13 5 13 14 0 9 12 27 26 40 14 13 31
42 39 65 7 23 17 40 21 37 5 -3 6 3 2 12 -4 10 -2 15 4 11 5 -3 10 0 10 7 0
17 44 109 56 117 5 4 6 12 2 19 -6 9 -4 11 5 5 10 -6 12 -4 7 8 -3 10 -2 17 4
17 6 0 7 4 4 10 -5 9 11 55 36 103 6 11 6 17 -1 17 -6 0 -5 7 2 19 7 11 15 18
19 15 4 -2 11 1 15 7 4 8 3 9 -4 5 -8 -5 -12 0 -12 13 0 12 4 21 9 21 5 0 7
10 3 22 -3 11 -1 19 4 16 5 -4 9 10 9 30 1 21 4 55 8 77 32 183 30 492 -4 636
-6 26 -11 53 -12 60 -2 8 -6 20 -11 27 -4 7 -5 16 -2 19 3 3 1 12 -5 19 -6 8
-9 21 -5 29 3 8 1 15 -5 15 -6 0 -8 4 -4 9 3 5 1 12 -5 16 -5 3 -10 14 -10 23
0 10 -8 34 -19 55 -10 20 -14 34 -7 30 6 -4 5 1 -2 10 -8 9 -10 22 -6 28 4 8
3 9 -4 5 -16 -10 -15 7 1 23 10 10 9 11 -5 6 -14 -5 -18 -2 -18 13 0 11 -7 25
-15 32 -8 7 -15 19 -15 26 0 8 -5 14 -11 14 -6 0 -8 8 -5 18 4 11 -2 28 -15
43 -38 43 -70 99 -63 111 4 7 3 8 -4 4 -7 -4 -12 -2 -12 3 0 21 -3 26 -21 39
-11 8 -16 19 -12 29 4 10 2 14 -4 10 -6 -4 -25 12 -43 34 -24 30 -29 43 -20
49 9 5 9 9 1 14 -6 4 -11 2 -11 -4 0 -6 -5 -8 -10 -5 -6 4 -8 10 -6 14 3 4 -6
15 -19 25 -14 10 -22 22 -19 27 3 5 -3 6 -12 2 -12 -4 -15 -3 -10 6 4 6 2 18
-4 26 -13 16 -4 39 11 29 5 -3 7 -9 4 -13 -2 -5 5 -17 18 -27 22 -19 22 -19 4
2 -16 20 -16 21 5 31 13 6 26 10 30 9 4 0 15 9 23 22 9 12 21 19 27 16 7 -4 8
-2 4 4 -4 7 5 23 20 37 28 26 51 34 38 13 -5 -7 -3 -8 5 -4 7 5 10 15 6 24 -5
13 -1 12 17 -4 13 -11 30 -20 38 -19 8 1 21 3 29 3 8 1 11 5 8 9 -4 3 1 12 10
18 14 11 15 16 5 28 -7 8 -11 21 -10 28 2 7 -4 13 -12 14 -8 1 -14 6 -12 13 1
7 -2 11 -6 10 -5 -2 -29 17 -53 42 -25 25 -49 47 -55 50 -5 3 -8 8 -6 13 4 14
-7 7 -35 -20 -15 -16 -30 -28 -34 -28 -4 0 -11 -4 -16 -9 -5 -5 -3 -6 5 -2 6
4 12 3 12 -2 0 -4 10 -19 21 -31 18 -19 19 -25 8 -32 -8 -5 -10 -9 -4 -9 5 0
-1 -7 -13 -16 -12 -8 -28 -12 -35 -8 -6 4 -9 4 -5 -1 4 -4 2 -15 -5 -23 -10
-13 -9 -15 3 -8 8 4 6 1 -4 -8 -10 -8 -22 -13 -27 -11 -4 3 -11 0 -15 -6 -5
-8 -3 -9 7 -4 8 5 4 -3 -9 -17 -23 -26 -56 -34 -48 -12 3 8 0 11 -10 7 -11 -4
-12 -9 -3 -19 6 -8 15 -12 19 -9 14 8 21 -28 8 -38 -9 -6 -7 -7 6 -3 14 5 17
2 12 -10 -4 -9 -1 -24 6 -33 7 -9 -14 11 -47 44 -33 33 -71 68 -85 79 -17 12
-19 16 -6 12 16 -5 17 -4 6 9 -7 8 -17 12 -23 8 -6 -4 -7 -1 -2 7 6 10 4 12
-9 7 -14 -5 -15 -3 -6 12 7 14 5 22 -8 32 -15 13 -16 12 -3 -3 7 -10 12 -18
10 -19 -35 -7 -40 -6 -35 6 3 8 0 12 -7 9 -7 -2 -23 6 -35 19 l-22 24 34 -1
c25 -1 32 -5 28 -15 -4 -9 -1 -12 7 -7 7 5 20 1 29 -7 9 -9 24 -17 32 -19 8
-2 21 -10 27 -18 11 -13 12 -13 7 3 -5 13 -2 16 9 11 8 -3 18 0 22 5 3 6 10 9
15 6 4 -3 28 15 53 40 26 25 52 45 59 45 10 0 10 2 -1 9 -11 7 -9 10 8 16 13
4 20 9 17 12 -3 4 -1 12 5 20 10 11 15 11 28 1 14 -11 14 -11 5 2 -14 18 -15
70 -2 70 5 0 6 -5 2 -12 -4 -6 -3 -8 3 -5 14 9 11 50 -5 53 -7 1 -8 0 -2 -3
25 -12 6 -21 -36 -17 -43 5 -47 3 -85 -38 -21 -24 -39 -47 -39 -52 0 -5 -3 -7
-6 -3 -8 7 -33 -16 -28 -25 6 -9 -32 -29 -40 -21 -3 3 -6 11 -6 17 0 6 5 4 10
-4 6 -9 10 -10 10 -3 0 7 -7 16 -16 21 -15 8 -15 11 5 31 11 11 19 21 16 21
-3 0 3 10 15 22 11 12 20 26 20 30 0 5 5 6 10 3 6 -3 13 1 16 9 3 9 9 14 13
12 3 -2 7 9 7 25 1 16 -3 29 -8 29 -5 0 -7 4 -4 9 3 4 -6 13 -20 20 -26 12
-64 0 -64 -20 0 -5 -8 -9 -17 -7 -11 2 -17 -2 -15 -10 2 -13 -34 -67 -46 -67
-18 -1 -30 -17 -25 -32 5 -12 3 -14 -7 -8 -8 5 -11 4 -6 -3 3 -6 1 -14 -5 -17
-5 -4 -8 -14 -5 -22 3 -8 1 -24 -5 -35 -8 -16 -8 -19 1 -13 8 5 11 3 8 -6 -3
-8 2 -19 10 -25 12 -9 12 -13 2 -19 -9 -5 -11 -4 -6 3 5 9 0 9 -19 2 -34 -13
-38 -13 -29 2 4 7 3 8 -4 4 -15 -9 -64 23 -55 37 3 6 1 7 -5 3 -7 -4 -23 4
-36 17 -14 14 -27 23 -29 20 -3 -2 -31 10 -63 28 -111 60 -129 69 -199 93 -39
14 -69 29 -68 34 1 5 -11 8 -27 7 -16 -1 -27 2 -23 8 3 5 -3 6 -15 3 -11 -4
-23 -2 -27 4 -3 5 -22 10 -41 10 -19 0 -33 3 -31 8 3 4 -16 8 -41 9 -26 1 -48
7 -50 13 -2 5 -16 7 -30 4 -16 -3 -22 -2 -15 3 6 4 -29 9 -80 11 -51 1 -93 6
-94 10 -2 4 -27 6 -55 6 -30 -1 -56 3 -60 10 -6 8 -8 8 -8 -1 0 -15 -66 -15
-94 -1 -12 7 -16 7 -12 0 8 -14 -49 -25 -130 -26 -36 -1 -57 -5 -50 -9 6 -5
-1 -7 -18 -4 -16 3 -45 -2 -64 -10 -19 -8 -41 -12 -48 -9 -8 3 -14 1 -14 -3 0
-5 -11 -8 -25 -6 -14 1 -25 -2 -25 -7 0 -5 -9 -4 -20 2 -26 14 -25 27 1 35 15
5 18 10 10 18 -6 6 -11 23 -11 38 0 15 -4 30 -9 33 -5 4 -12 25 -16 49 -4 23
-12 48 -19 56 -9 12 -8 13 3 6 8 -4 1 16 -15 46 -16 30 -36 55 -45 57 -9 2
-30 -8 -46 -22z m82 -93 c14 -49 32 -107 40 -131 12 -37 12 -44 0 -47 -8 -3
-22 -7 -30 -10 -8 -2 -15 -3 -15 -2 0 5 -69 233 -75 249 -6 15 6 23 42 27 7 0
23 -38 38 -86z m-168 12 c19 -5 21 -9 11 -30 -9 -20 -16 -22 -44 -18 -72 12
-105 -46 -68 -122 21 -46 65 -63 100 -40 15 9 28 25 31 34 6 24 53 16 53 -9 0
-51 -93 -101 -156 -86 -62 16 -113 108 -100 179 8 42 47 84 90 96 31 9 40 8
83 -4z m978 -216 c381 -49 762 -244 1042 -533 145 -149 232 -270 322 -446 74
-147 127 -295 162 -460 20 -92 23 -134 23 -335 1 -264 -11 -351 -75 -550 -147
-461 -450 -822 -879 -1048 -139 -73 -234 -110 -381 -147 -168 -43 -300 -60
-464 -60 -692 0 -1329 400 -1622 1017 -57 119 -126 333 -148 453 -26 141 -31
417 -11 560 59 417 244 775 552 1069 395 377 929 551 1479 480z m-1295 7 c0
-2 -7 -7 -16 -10 -8 -3 -12 -2 -9 4 6 10 25 14 25 6z m2338 -75 c-7 -9 -34
-42 -60 -74 -33 -40 -48 -67 -48 -87 0 -33 29 -55 60 -45 29 9 133 132 124
146 -4 7 7 4 25 -7 17 -10 31 -23 31 -29 0 -6 -33 -46 -72 -88 -62 -66 -78
-77 -106 -77 -66 0 -122 48 -122 105 1 37 11 54 79 137 53 64 56 65 78 51 20
-13 21 -18 11 -32z m-148 -61 c0 -5 -5 -10 -11 -10 -5 0 -7 5 -4 10 3 6 8 10
11 10 2 0 4 -4 4 -10z m300 6 c0 -3 -4 -8 -10 -11 -5 -3 -10 -1 -10 4 0 6 5
11 10 11 6 0 10 -2 10 -4z m-2523 -76 c7 -10 9 -21 4 -24 -5 -3 -11 4 -14 15
-4 13 -10 18 -18 13 -8 -4 -10 -3 -5 4 10 17 19 15 33 -8z m-114 -35 c-3 -9
-8 -14 -10 -11 -3 3 -2 9 2 15 9 16 15 13 8 -4z m2764 -70 c68 -73 69 -76 50
-92 -18 -17 -20 -17 -43 11 -29 33 -23 36 -130 -67 l-62 -59 -21 21 -21 21 48
43 c26 24 64 59 85 77 l38 33 -30 31 c-28 29 -29 32 -13 43 9 7 20 12 23 12 3
1 37 -33 76 -74z m-2946 -88 c-10 -9 -11 -8 -5 6 3 10 9 15 12 12 3 -3 0 -11
-7 -18z m145 -44 c1 -15 -4 -19 -17 -16 -11 3 -19 0 -19 -6 0 -7 5 -9 13 -5 6
4 4 -2 -7 -14 -10 -12 -23 -19 -27 -16 -5 3 -9 -2 -9 -10 0 -9 -8 -16 -17 -16
-16 0 -16 -2 -3 -11 12 -8 10 -9 -9 -4 -14 5 -21 3 -17 -3 7 -12 -18 -35 -28
-25 -4 4 -4 0 0 -10 3 -9 2 -17 -4 -17 -5 0 -17 -16 -26 -35 -11 -23 -21 -32
-31 -28 -18 6 -30 46 -21 68 4 11 2 14 -6 9 -8 -5 -9 -2 -5 9 3 10 2 17 -4 17
-6 0 -7 5 -4 10 4 6 3 10 -2 9 -17 -3 -33 1 -32 9 4 26 -1 34 -16 22 -19 -16
-19 -1 0 24 13 17 15 18 15 3 0 -9 4 -17 9 -17 6 0 25 -13 43 -30 18 -16 38
-30 46 -30 7 0 11 -4 7 -9 -3 -5 0 -13 6 -17 7 -4 9 -3 5 4 -3 6 3 13 14 17
11 3 20 11 20 16 0 6 -4 7 -10 4 -5 -3 -10 -3 -10 0 0 3 13 11 30 16 16 6 28
15 25 19 -8 12 33 32 48 25 6 -4 4 0 -6 8 -18 15 -18 15 2 22 11 3 20 9 20 13
-3 17 2 23 14 20 6 -3 12 -14 13 -25z m-393 -43 c4 -14 0 -23 -11 -27 -25 -9
-62 -45 -62 -60 0 -27 30 -24 72 6 24 18 54 31 70 31 34 0 78 -40 78 -70 0
-40 -37 -95 -80 -119 -46 -26 -45 -26 -53 9 -5 22 -2 28 22 37 32 12 66 56 56
73 -10 17 -36 11 -71 -15 -48 -37 -84 -41 -117 -15 -50 39 -26 129 44 162 37
19 44 17 52 -12z m-37 -78 c-17 -16 -18 -16 -5 5 7 12 15 20 18 17 3 -2 -3
-12 -13 -22z m86 -84 c-7 -7 -12 -8 -12 -2 0 14 12 26 19 19 2 -3 -1 -11 -7
-17z"/>
<path d="M2755 4674 c-272 -41 -499 -131 -740 -292 -127 -85 -335 -290 -428
-422 -354 -503 -415 -1166 -157 -1717 74 -159 191 -340 212 -327 7 5 8 2 4 -5
-14 -21 123 -167 266 -284 387 -317 905 -445 1416 -351 444 82 859 353 1107
724 62 93 147 250 173 320 81 217 122 437 122 659 0 453 -188 889 -524 1221
l-76 75 -35 -35 c-57 -58 -102 -143 -109 -207 -10 -85 -52 -235 -80 -292 -40
-78 -208 -294 -320 -413 -87 -91 -108 -108 -134 -108 -48 0 -82 48 -82 116 0
68 25 119 96 198 67 74 92 133 74 176 -27 65 -121 79 -211 32 -50 -26 -54 -31
-51 -60 2 -17 -2 -40 -8 -52 -9 -16 -8 -20 5 -20 23 0 55 -37 55 -64 0 -31
-33 -57 -110 -86 l-60 -22 25 -30 c31 -37 33 -86 4 -122 -11 -14 -24 -26 -29
-26 -4 0 -48 19 -96 42 -81 38 -89 40 -98 24 -6 -10 -32 -47 -59 -82 -41 -55
-44 -62 -22 -52 14 6 23 13 20 16 -2 3 3 11 13 18 13 9 19 9 25 1 6 -8 7 -6 3
5 -3 10 1 32 9 50 8 18 14 27 15 20 0 -7 5 -10 10 -7 6 4 8 11 5 16 -4 5 -1 9
4 9 6 0 11 -7 11 -15 0 -8 6 -12 14 -9 8 3 17 1 21 -5 3 -6 13 -11 21 -11 8 0
24 -9 36 -20 12 -10 25 -17 30 -14 4 3 8 0 8 -7 0 -10 3 -10 11 -2 6 6 17 9
24 7 7 -3 22 7 34 22 11 15 22 23 23 18 0 -5 4 11 7 36 3 25 3 47 0 50 -12 10
-22 53 -10 46 7 -4 9 -1 5 8 -5 13 29 33 49 28 4 -1 7 2 7 6 0 10 51 37 63 33
5 -1 6 3 2 9 -3 5 -1 18 4 28 7 14 6 25 -6 42 -15 22 -15 23 0 17 27 -10 19 1
-12 17 -24 13 -28 21 -28 56 0 41 24 69 47 55 5 -3 7 0 4 8 -2 7 1 14 8 15 7
0 31 4 54 8 43 7 90 -9 79 -27 -4 -5 2 -9 11 -9 10 0 14 -3 11 -7 -4 -3 -3
-11 3 -18 14 -17 -30 -95 -81 -143 -37 -34 -48 -39 -60 -29 -7 7 -5 1 6 -12
17 -21 18 -23 3 -18 -11 4 -15 2 -12 -7 3 -7 -4 -32 -15 -57 -20 -43 -20 -118
-1 -144 4 -5 6 -18 5 -28 -2 -9 1 -14 7 -11 6 4 8 -2 3 -17 -4 -17 -4 -20 3
-10 9 12 14 12 36 -2 30 -20 57 -22 74 -5 7 7 12 9 12 5 0 -10 35 27 55 57 10
14 22 23 28 19 5 -3 8 -2 5 3 -6 11 28 45 37 36 4 -4 5 0 3 8 -2 8 3 14 10 13
6 -2 12 4 12 12 0 8 4 15 9 15 4 0 21 18 36 40 16 23 34 39 41 36 8 -3 16 0
20 6 4 7 3 8 -4 4 -16 -9 -15 7 0 22 7 7 8 12 3 12 -4 0 1 8 12 18 11 9 22 25
26 35 8 20 34 17 29 -2 -1 -7 2 -10 8 -6 8 5 8 11 0 20 -19 23 5 56 36 51 21
-4 23 -2 14 9 -9 10 -8 20 4 42 8 15 16 24 16 18 1 -11 29 58 37 93 3 12 10
22 16 22 6 0 7 3 4 7 -4 3 -1 16 7 27 7 12 16 46 19 77 4 30 8 62 11 70 3 8 8
30 11 49 9 51 9 52 32 97 12 22 19 44 15 49 -4 4 1 4 10 1 11 -4 15 -2 12 7
-3 7 9 25 26 39 l31 27 21 -20 c12 -11 25 -20 30 -20 4 0 8 -5 8 -11 0 -5 -4
-7 -10 -4 -5 3 -10 1 -10 -5 0 -7 8 -9 23 -4 12 3 19 3 15 -1 -4 -4 4 -16 17
-27 14 -11 23 -24 19 -29 -3 -5 -1 -8 4 -7 6 2 26 -14 45 -34 19 -21 32 -38
28 -38 -3 0 3 -7 13 -15 11 -8 16 -15 11 -15 -4 0 4 -11 19 -25 15 -14 24 -30
20 -37 -4 -7 -3 -8 4 -4 7 4 12 1 12 -9 0 -9 4 -14 9 -11 4 3 7 -11 5 -31 -2
-22 1 -32 6 -24 10 17 33 4 26 -16 -3 -8 -1 -11 4 -8 6 4 16 -7 23 -24 7 -17
16 -28 20 -24 7 6 11 -20 7 -47 -1 -8 2 -12 6 -7 8 8 45 -43 39 -54 -3 -4 2
-12 10 -19 7 -6 11 -19 8 -27 -4 -11 -2 -14 5 -9 7 4 13 1 13 -8 2 -25 4 -29
19 -56 7 -14 13 -27 12 -30 -3 -8 30 -114 39 -124 4 -5 3 -19 -2 -33 -6 -17
-6 -22 2 -17 9 5 10 -1 5 -22 -4 -18 -3 -24 2 -16 7 11 11 8 16 -11 3 -14 3
-33 0 -41 -3 -9 -1 -23 6 -31 7 -9 14 -41 15 -73 2 -31 6 -85 10 -119 4 -44 3
-63 -5 -63 -6 0 -8 -5 -4 -11 11 -19 14 -78 4 -102 -7 -18 -8 -14 -5 16 2 20
0 37 -4 37 -5 0 -9 20 -9 45 -1 25 3 45 8 45 6 0 10 5 10 11 0 8 -4 8 -13 0
-10 -7 -17 -7 -24 0 -8 8 -13 8 -17 0 -4 -6 -12 -11 -17 -11 -6 0 -7 4 -4 10
3 6 -1 7 -10 3 -13 -5 -14 -7 -3 -14 10 -7 10 -9 0 -9 -7 0 -16 10 -21 23 -18
47 -55 60 -175 60 -61 0 -122 -3 -135 -7 -16 -6 -26 -4 -32 5 -7 11 -9 10 -9
-3 0 -10 -4 -18 -10 -18 -5 0 -7 8 -3 18 7 18 5 17 -17 -12 -10 -13 -10 -17
-2 -12 18 11 14 -6 -9 -34 -13 -16 -19 -19 -15 -8 6 20 -9 34 -19 17 -4 -5
-13 -8 -21 -5 -8 3 -17 -1 -20 -9 -7 -18 -25 -20 -20 -2 1 6 1 8 -2 4 -2 -4
-11 -2 -20 5 -10 7 -7 1 6 -13 24 -27 21 -41 -6 -32 -18 7 -17 5 12 -17 13
-10 17 -10 12 -2 -4 6 -3 12 2 12 18 0 19 -12 5 -42 -10 -20 -18 -26 -23 -18
-5 8 -9 7 -13 -5 -4 -9 -3 -14 2 -11 10 6 26 -23 21 -39 -6 -24 2 -110 12
-116 6 -4 8 -11 5 -16 -10 -17 86 -10 103 7 12 12 41 15 155 14 77 -1 148 3
157 8 13 6 23 2 38 -15 17 -19 29 -23 56 -20 27 3 34 0 29 -9 -4 -7 1 -4 9 6
15 19 21 39 16 61 -1 6 4 5 10 -1 8 -8 9 -21 4 -35 -4 -13 -7 -27 -6 -31 1 -3
-6 -39 -14 -80 -9 -40 -17 -84 -18 -98 -2 -14 -5 -26 -6 -27 -1 -2 -4 -7 -5
-13 -1 -5 -3 -11 -4 -12 -2 -2 -4 -14 -7 -27 -2 -14 -9 -30 -15 -37 -6 -7 -8
-18 -4 -24 3 -5 1 -10 -4 -10 -6 0 -11 -6 -11 -14 0 -7 -6 -26 -14 -41 -8 -15
-12 -34 -9 -43 4 -10 2 -13 -5 -8 -8 5 -12 0 -12 -12 0 -11 -6 -25 -14 -31 -8
-7 -18 -26 -21 -42 -7 -30 -20 -38 -28 -16 -4 9 -6 9 -6 0 -1 -6 4 -15 9 -18
6 -3 10 -11 10 -16 0 -6 -4 -7 -10 -4 -5 3 -10 -3 -10 -13 0 -11 -7 -25 -15
-32 -8 -7 -12 -16 -9 -21 3 -5 -3 -6 -12 -2 -10 4 -15 2 -11 -3 7 -13 -23 -75
-34 -69 -4 3 -13 -5 -20 -17 -12 -22 -11 -22 7 -8 19 14 19 14 0 -8 -20 -23
-32 -30 -21 -12 3 6 1 10 -5 10 -7 0 -9 7 -6 17 6 15 4 15 -14 -2 -22 -20 -27
-30 -9 -19 6 3 15 0 20 -7 13 -21 11 -32 -5 -26 -10 4 -13 1 -9 -9 3 -8 -8
-26 -26 -43 -17 -16 -31 -31 -31 -34 0 -14 -90 -98 -99 -92 -7 4 -8 -1 -4 -11
5 -14 3 -16 -11 -11 -10 4 -15 3 -11 -3 10 -16 -37 -61 -57 -54 -10 3 -18 0
-18 -6 0 -6 6 -8 13 -5 6 3 1 -2 -13 -12 -13 -10 -34 -27 -45 -38 -11 -11 -24
-19 -28 -17 -4 1 -10 -4 -13 -12 -3 -9 -12 -12 -21 -9 -11 4 -14 2 -9 -5 4 -7
3 -12 -3 -12 -5 0 -16 -6 -23 -12 -25 -23 -76 -48 -100 -48 -18 0 -20 -2 -9
-9 12 -8 9 -11 -12 -16 -15 -4 -27 -11 -27 -16 0 -5 -5 -9 -11 -9 -5 0 -7 4
-4 10 3 6 -1 7 -10 3 -10 -3 -13 -8 -6 -12 6 -4 -10 -13 -34 -20 -25 -7 -45
-18 -45 -24 0 -6 -3 -8 -6 -5 -3 4 -17 0 -31 -7 -14 -7 -32 -11 -41 -8 -9 4
-13 2 -9 -4 5 -9 -41 -28 -93 -39 -57 -12 -178 -42 -190 -46 -89 -34 -468 -39
-605 -9 -27 6 -63 13 -80 15 -62 8 -163 37 -231 68 -22 10 -46 18 -53 18 -7 0
-9 4 -6 10 4 6 -1 7 -11 3 -11 -4 -15 -3 -11 4 5 7 0 9 -11 6 -11 -2 -26 2
-34 10 -8 8 -29 18 -46 22 -18 3 -32 10 -32 15 0 8 -38 23 -52 21 -5 -1 -8 2
-8 7 0 4 -17 16 -37 27 -52 27 -84 51 -76 59 3 3 -1 6 -11 6 -9 0 -19 6 -22
14 -3 8 -12 12 -20 9 -8 -3 -14 0 -14 6 0 6 -11 17 -25 23 -14 6 -25 15 -25
20 0 5 5 6 12 2 7 -4 8 -3 4 4 -4 6 -14 8 -23 5 -12 -5 -14 -3 -8 7 5 9 4 11
-3 6 -7 -4 -12 -3 -12 1 0 5 -10 13 -22 18 -13 6 -22 17 -20 24 1 7 -2 10 -7
7 -11 -7 -33 19 -23 28 4 4 2 6 -3 4 -13 -4 -50 31 -58 55 -4 9 -12 16 -19 15
-7 -2 -12 2 -13 9 0 6 -12 20 -26 32 -30 23 -47 66 -23 57 9 -3 12 -1 9 5 -4
5 -15 7 -26 4 -20 -7 -27 9 -9 18 6 3 5 4 -2 3 -18 -4 -33 14 -42 47 -3 15
-11 25 -16 22 -5 -3 -12 6 -16 20 -3 13 -9 23 -13 20 -11 -6 -43 73 -35 86 5
8 3 9 -6 4 -16 -10 -31 14 -24 40 4 16 3 17 -5 5 -9 -13 -11 -12 -11 3 0 10
-7 28 -16 41 -8 14 -17 35 -18 48 -5 33 -17 59 -25 53 -4 -2 -7 9 -6 25 1 17
0 28 -3 25 -8 -8 -32 45 -32 71 0 12 -5 26 -10 29 -6 4 -8 15 -5 26 4 11 2 19
-5 19 -6 0 -10 8 -9 18 1 9 -1 25 -6 35 -4 9 -5 24 -1 32 3 8 2 15 -3 15 -8 0
-18 61 -28 168 -3 37 -1 52 6 47 6 -3 11 -1 11 4 0 6 -6 11 -13 11 -10 0 -13
19 -13 75 1 41 4 75 9 75 4 0 7 5 7 11 0 5 -4 8 -8 5 -8 -5 3 175 13 209 4 11
9 38 12 60 3 22 8 42 12 45 4 3 7 16 7 30 -1 47 68 235 83 226 4 -3 7 5 6 17
-1 12 3 31 8 42 6 11 12 25 13 30 5 25 85 150 97 150 6 0 12 12 12 27 1 16 7
34 14 40 10 11 11 9 5 -7 -4 -11 -4 -17 0 -13 4 3 8 13 10 21 2 18 35 68 55
85 10 8 11 11 2 6 -10 -5 -12 -3 -7 5 5 7 14 10 22 7 8 -3 11 0 7 10 -6 15 32
59 52 59 5 0 8 9 7 20 -2 11 -1 17 3 13 4 -4 21 9 36 29 16 20 29 33 29 30 0
-3 21 17 48 44 43 45 73 65 56 37 -4 -7 -3 -8 4 -4 6 4 8 14 5 23 -4 11 -2 14
5 9 6 -4 17 2 24 14 7 11 18 20 25 20 7 0 16 7 21 16 5 9 12 15 15 15 21 -3
28 0 22 9 -6 9 8 14 28 11 5 -1 6 2 3 7 -2 4 8 13 23 20 15 7 37 21 49 32 12
12 22 18 22 14 0 -3 11 1 24 10 14 9 33 13 43 10 13 -4 15 -3 5 4 -11 7 -10
11 5 17 10 5 23 9 28 9 6 1 20 7 33 14 12 7 28 10 34 6 7 -4 8 -3 4 4 -5 8 1
12 14 12 14 0 19 4 14 12 -5 7 -2 9 8 5 9 -3 34 3 55 14 60 30 167 57 198 51
16 -3 26 -1 22 5 -7 11 106 38 128 29 9 -3 13 -2 10 3 -3 5 9 10 27 10 18 0
101 2 185 4 84 2 150 1 148 -2 -1 -3 18 -7 43 -7 64 -2 212 -26 208 -33 -2 -3
10 -6 27 -5 44 1 68 -6 60 -19 -4 -6 4 -8 21 -3 15 4 25 3 22 -2 -5 -8 7 -12
47 -13 9 0 17 -7 17 -16 0 -12 3 -13 14 -4 24 20 14 -20 -13 -51 -20 -23 -27
-26 -45 -16 -18 10 -19 9 -8 -4 10 -13 9 -18 -3 -28 -8 -7 -23 -10 -33 -8 -11
3 -19 0 -19 -8 0 -7 4 -11 9 -8 4 3 8 2 8 -1 0 -3 -16 -13 -35 -21 -19 -8 -35
-19 -35 -24 0 -6 -5 -10 -11 -10 -5 0 -7 6 -3 13 5 7 1 7 -12 -3 -30 -22 -30
-24 -9 -17 20 7 20 7 1 -8 -11 -8 -26 -15 -33 -15 -7 0 -13 -5 -13 -11 0 -6
-9 -9 -20 -6 -10 3 -18 0 -17 -5 1 -6 -4 -13 -12 -16 -9 -3 -11 0 -6 9 5 8 4
11 -1 6 -5 -5 -9 -12 -9 -15 0 -11 -46 -54 -52 -48 -3 3 -20 -6 -37 -19 -25
-19 -35 -22 -44 -13 -9 9 -15 9 -24 -1 -11 -10 -9 -11 6 -5 14 5 17 3 14 -7
-6 -19 -107 -79 -122 -73 -7 3 -19 -2 -26 -10 -7 -9 -15 -14 -19 -12 -4 3 -7
-7 -7 -22 1 -17 -4 -26 -12 -24 -8 1 -11 -2 -7 -8 3 -5 0 -20 -7 -32 -13 -23
-15 -29 -17 -61 0 -10 -5 -15 -11 -12 -5 3 -7 0 -4 -8 2 -7 -7 -33 -20 -58
-14 -24 -26 -52 -26 -63 0 -16 -2 -17 -17 -5 -15 13 -15 12 -4 -8 10 -20 -1
-35 -12 -15 -2 4 -3 2 -1 -4 3 -15 -28 -79 -51 -104 -11 -12 -19 -24 -17 -26
6 -8 -10 -68 -25 -94 l-15 -25 22 25 c13 15 20 19 17 8 -3 -9 0 -24 8 -34 10
-15 11 -22 2 -33 -10 -12 -9 -14 5 -8 12 4 15 2 11 -9 -3 -7 -9 -14 -15 -14
-5 0 -6 -9 -3 -20 4 -13 1 -22 -9 -26 -9 -3 -12 -12 -9 -21 5 -12 3 -14 -6 -8
-10 5 -11 2 -7 -13 4 -11 2 -23 -4 -27 -6 -3 -8 -11 -5 -16 4 -5 -3 -22 -14
-38 -12 -16 -21 -39 -21 -51 0 -13 -4 -19 -12 -14 -7 4 -8 3 -4 -4 4 -6 3 -20
-3 -30 -8 -15 -3 -25 26 -51 19 -18 41 -30 49 -27 24 9 16 -18 -18 -62 -37
-48 -43 -50 -51 -21 -4 16 -12 20 -39 17 -44 -4 -54 -38 -11 -38 25 0 72 -19
48 -20 -5 0 -3 -5 5 -10 11 -8 9 -9 -10 -5 -43 10 -60 -34 -60 -153 0 -55 3
-107 6 -116 5 -12 20 -16 61 -16 l55 0 -4 33 c-3 30 -1 32 27 29 255 -25 559
-13 524 22 -2 3 -20 1 -40 -3 -19 -4 -52 -8 -72 -7 -20 1 -37 -1 -37 -4 0 -6
-142 -4 -303 4 l-108 5 -11 -30 c-9 -26 -15 -30 -42 -27 l-31 3 0 65 c0 36 -2
67 -6 70 -3 3 -2 16 2 30 7 24 7 24 14 3 8 -25 35 -34 60 -20 10 5 15 5 12 0
-3 -5 20 -9 53 -9 54 -1 58 0 55 21 -3 29 -67 88 -77 72 -6 -9 -8 -8 -8 1 0 7
-7 12 -16 10 -9 -2 -20 7 -25 19 -4 13 -5 22 0 20 4 -1 28 23 52 53 l45 55
209 0 208 0 34 -50 35 -50 -282 -3 c-181 -1 -279 -6 -275 -12 3 -6 1 -10 -4
-10 -6 0 -11 -3 -11 -7 0 -7 72 -8 90 -3 13 5 508 4 503 0 -2 -3 -8 -5 -11 -6
-23 -3 -80 -36 -100 -57 -21 -23 -22 -26 -7 -41 11 -11 30 -15 61 -14 24 2 44
6 44 9 0 7 44 4 57 -4 5 -3 10 4 10 15 1 12 7 26 13 32 8 8 10 -17 8 -89 l-3
-100 -35 0 c-31 0 -36 4 -41 30 -5 23 -7 26 -13 13 -4 -9 -6 -27 -4 -40 3 -20
9 -23 56 -26 l52 -3 2 83 c3 163 -3 188 -51 209 -37 17 -32 25 15 27 65 3 74
42 9 42 -25 0 -35 -5 -40 -20 -3 -11 -10 -20 -13 -20 -4 0 -25 25 -47 55 -23
32 -52 59 -69 65 -33 11 -368 12 -406 1 -30 -9 -75 10 -90 40 -9 16 -8 28 3
52 9 18 36 82 61 144 l45 112 -19 43 c-11 24 -20 49 -20 57 0 8 36 87 80 175
44 89 90 190 102 226 26 73 0 52 341 274 91 60 145 101 141 108 -4 7 -3 8 5 4
17 -11 115 59 168 119 l44 50 -33 14 c-218 91 -607 135 -863 95z m255 -549
c-7 -8 -17 -15 -22 -15 -6 0 -5 7 2 15 7 8 17 15 22 15 6 0 5 -7 -2 -15z
m1538 -1071 c15 -10 21 -22 17 -32 -3 -9 -3 -13 1 -9 4 4 13 -2 21 -13 17 -24
33 -26 33 -5 0 9 9 15 24 15 17 0 25 -7 28 -24 4 -21 3 -23 -13 -13 -14 9 -21
9 -31 -1 -9 -9 -8 -12 5 -12 28 0 38 -36 35 -128 l-3 -87 -40 0 c-34 0 -40 3
-38 20 2 19 -4 20 -188 20 l-189 0 0 -23 c0 -21 -4 -23 -42 -20 l-43 3 -3 70
c-5 103 4 135 38 148 16 6 34 21 41 34 7 12 16 20 20 17 5 -3 6 1 3 9 -3 9 4
22 18 31 18 13 49 16 153 16 104 0 135 -3 153 -16z m-370 -61 c2 -8 -6 -13
-22 -13 -26 0 -40 12 -29 24 11 11 46 2 51 -11z m-1430 -43 c60 -28 86 -58 40
-47 -13 4 -43 9 -68 13 -52 8 -70 19 -70 45 0 27 25 24 98 -11z m600 3 c2 -14
-3 -23 -15 -27 -34 -10 -136 -26 -140 -22 -13 12 118 78 142 72 6 -1 11 -12
13 -23z m-663 -53 c3 -6 -1 -7 -9 -4 -18 7 -21 14 -7 14 6 0 13 -4 16 -10z"/>
<path d="M4210 2962 c-23 -4 -24 -5 -5 -13 16 -6 12 -8 -17 -8 -20 -1 -39 -5
-42 -9 -2 -4 10 -6 28 -4 21 2 37 -2 45 -12 8 -9 22 -16 31 -16 10 0 21 -6 23
-12 4 -10 6 -10 6 0 1 7 -12 19 -28 25 -23 10 -28 16 -21 27 8 12 10 12 10 1
0 -9 4 -10 13 -4 6 5 75 9 152 9 77 -1 142 2 145 6 3 4 11 3 19 -1 9 -6 2 -14
-24 -30 -21 -12 -35 -25 -32 -28 4 -3 12 -1 19 4 7 6 30 16 50 22 41 13 67 38
30 29 -15 -4 -22 -2 -22 8 0 12 -31 14 -177 13 -98 -1 -189 -4 -203 -7z"/>
<path d="M4144 2888 c-7 -11 24 -22 63 -22 18 0 33 -4 33 -8 0 -4 4 -8 10 -8
5 0 7 6 4 13 -6 15 -102 38 -110 25z"/>
<path d="M4585 2886 c-55 -13 -46 -24 15 -18 21 2 41 10 44 18 6 16 7 16 -59
0z"/>
<path d="M4145 2790 c-3 -5 -1 -10 4 -10 6 0 11 5 11 10 0 6 -2 10 -4 10 -3 0
-8 -4 -11 -10z"/>
<path d="M3700 4590 c8 -5 20 -10 25 -10 6 0 3 5 -5 10 -8 5 -19 10 -25 10 -5
0 -3 -5 5 -10z"/>
<path d="M2485 4570 c-3 -6 1 -7 9 -4 18 7 21 14 7 14 -6 0 -13 -4 -16 -10z"/>
<path d="M3630 4515 c-44 -59 -71 -80 -300 -230 -376 -247 -328 -205 -377
-323 -23 -56 -37 -100 -32 -97 16 11 10 -2 -47 -96 -78 -128 -86 -148 -72
-193 11 -35 28 -49 28 -23 0 36 58 125 148 227 56 63 100 120 98 125 -5 18
-31 11 -28 -8 2 -9 -4 -20 -13 -23 -8 -3 -15 -10 -15 -15 0 -5 -16 -26 -35
-46 -24 -25 -35 -32 -35 -21 0 9 7 24 16 32 8 9 10 16 4 16 -6 0 -13 -7 -16
-15 -4 -8 -9 -13 -13 -11 -3 2 -6 -6 -6 -19 0 -13 4 -20 10 -17 9 5 -18 -26
-67 -78 -9 -10 -13 -21 -10 -25 4 -3 -1 -3 -11 1 -13 4 -16 2 -11 -9 3 -8 1
-17 -4 -21 -17 -10 -5 34 13 48 10 7 15 18 11 24 -5 8 -1 10 10 5 14 -5 16 -3
11 11 -5 13 -3 17 7 13 10 -4 13 -1 9 9 -3 8 3 22 13 30 11 9 13 13 6 9 -14
-7 32 85 51 100 7 6 17 19 24 30 6 11 17 19 25 17 10 -3 11 -1 1 9 -15 15 -17
33 -4 24 5 -3 12 -2 15 3 3 5 -1 9 -9 9 -8 0 -31 -27 -51 -59 -20 -32 -39 -56
-42 -54 -2 3 14 35 37 71 44 71 48 80 29 70 -7 -4 -6 -1 3 7 9 7 14 18 12 25
-2 6 1 15 8 19 8 5 10 3 5 -7 -4 -8 1 -4 12 8 11 12 22 19 26 16 3 -4 17 3 29
15 13 12 27 19 32 15 4 -5 5 -3 2 3 -6 10 20 29 31 24 2 -1 16 10 31 24 22 21
30 23 40 13 10 -10 11 -9 6 6 -7 16 3 22 28 18 5 -1 6 2 3 7 -5 9 42 37 57 34
4 -1 7 3 7 9 0 5 5 7 10 4 6 -3 10 -1 10 4 0 6 6 11 14 11 8 0 16 6 19 14 3 8
22 26 42 42 30 23 38 25 46 13 8 -11 9 -10 7 6 -2 15 3 20 19 19 12 0 20 3 17
8 -6 9 39 52 78 73 15 8 29 24 33 35 4 11 11 18 16 15 5 -4 9 0 9 8 0 8 7 18
16 21 8 3 12 2 9 -4 -3 -6 -1 -10 4 -10 6 0 11 5 11 11 0 5 5 7 10 4 6 -4 8
-10 5 -15 -3 -4 5 -6 17 -2 14 3 19 2 14 -6 -6 -11 -3 -12 19 -12 3 0 32 -13
65 -30 38 -19 58 -35 54 -42 -5 -7 -3 -8 5 -3 7 4 22 -2 36 -15 13 -12 28 -19
33 -16 5 3 16 -2 23 -11 12 -15 12 -16 -4 -10 -11 4 -16 3 -12 -4 4 -5 16 -7
27 -3 14 4 18 2 14 -5 -5 -7 -2 -10 6 -9 8 2 12 -4 10 -16 -2 -10 1 -15 7 -12
15 10 51 -12 51 -30 0 -19 -41 -75 -51 -68 -4 2 -11 -1 -15 -7 -4 -8 -3 -9 4
-5 7 4 12 4 12 1 0 -10 -37 -55 -41 -50 -2 2 -12 -14 -21 -36 -10 -24 -12 -37
-5 -32 9 5 9 3 1 -8 -6 -8 -11 -31 -11 -52 -1 -52 -34 -187 -45 -187 -5 0 -7
-4 -4 -9 9 -15 -23 -83 -36 -75 -6 4 -8 3 -4 -4 16 -26 -54 -103 -87 -94 -5 1
-6 -2 -2 -8 4 -7 13 -6 27 1 20 11 20 11 2 -14 -11 -14 -22 -23 -26 -20 -5 2
-8 -2 -8 -9 0 -8 -13 -29 -30 -48 -16 -19 -29 -40 -30 -47 0 -6 -19 -28 -42
-49 -24 -20 -37 -33 -29 -29 10 6 12 4 7 -4 -4 -7 -13 -10 -19 -8 -7 2 -20 -9
-29 -25 -10 -15 -23 -28 -28 -28 -6 0 -9 3 -7 8 3 4 -1 13 -9 20 -9 8 -14 9
-14 2 0 -8 -6 -7 -21 0 -17 9 -24 8 -38 -9 -10 -11 -22 -17 -26 -13 -5 4 -6 3
-3 -3 3 -5 -2 -18 -12 -27 -16 -17 -17 -16 -15 15 1 36 49 125 59 109 3 -6 0
-13 -6 -15 -9 -4 -9 -6 -1 -6 16 -1 51 51 45 68 -3 10 1 12 16 8 19 -4 20 -2
12 13 -7 13 -6 21 2 26 6 4 9 3 6 -2 -3 -5 2 -17 11 -26 16 -16 17 -16 17 2 0
10 -4 16 -8 14 -13 -9 -8 30 7 49 7 11 11 26 8 35 -5 11 -3 13 6 7 10 -6 11
-3 1 15 -8 15 -8 20 -1 16 6 -4 11 0 11 8 0 9 -5 16 -11 16 -7 0 -9 10 -5 28
4 16 3 22 -2 14 -6 -9 -12 -5 -22 14 -21 37 -62 55 -128 54 -84 -1 -92 -2 -85
-13 3 -5 -3 -7 -13 -3 -11 3 -26 1 -34 -4 -8 -5 -11 -10 -7 -10 5 0 -5 -11
-21 -25 -17 -14 -34 -25 -38 -25 -5 0 -2 5 6 11 13 9 13 10 0 6 -8 -2 -14 -12
-14 -21 2 -14 -1 -15 -14 -4 -9 7 -13 8 -9 2 7 -13 -28 -58 -46 -60 -7 -1 -18
-2 -25 -3 -7 0 -11 -5 -7 -10 3 -6 -12 -26 -34 -46 -22 -21 -47 -52 -56 -71
-9 -19 -20 -32 -25 -29 -5 3 -12 0 -16 -6 -4 -8 -3 -9 4 -5 14 8 15 -3 3 -23
-5 -8 -14 -10 -22 -6 -9 6 -11 4 -6 -7 3 -9 -1 -25 -9 -37 -8 -12 -17 -31 -19
-43 -3 -13 -9 -24 -15 -26 -6 -2 -7 -9 -3 -15 4 -7 0 -8 -11 -4 -10 4 -15 3
-11 -3 9 -14 -4 -52 -16 -45 -5 3 -6 -1 -3 -9 7 -18 52 45 120 170 29 54 67
104 107 143 152 147 219 193 291 199 178 15 218 -114 82 -265 -80 -88 -96
-120 -96 -183 0 -46 4 -60 23 -78 42 -40 68 -30 136 53 35 41 71 79 81 85 10
5 50 53 89 107 39 54 87 118 106 143 68 89 112 202 135 350 16 104 33 145 96
222 l54 67 -52 42 c-98 78 -255 172 -354 211 l-41 17 -33 -44z m-530 -399 c0
-2 -8 -10 -17 -17 -16 -13 -17 -12 -4 4 13 16 21 21 21 13z m-260 -500 c0 -3
-4 -8 -10 -11 -5 -3 -10 -1 -10 4 0 6 5 11 10 11 6 0 10 -2 10 -4z m658 -126
c-7 -10 -14 -17 -17 -15 -4 4 18 35 25 35 2 0 -1 -9 -8 -20z m42 -128 l21 -17
-38 -48 c-41 -51 -66 -59 -83 -26 -14 26 3 73 34 94 27 19 39 19 66 -3z"/>
<path d="M3559 4513 c-13 -16 -12 -17 4 -4 9 7 17 15 17 17 0 8 -8 3 -21 -13z"/>
<path d="M3873 4495 c0 -7 6 -11 14 -8 7 3 13 6 13 8 0 2 -6 5 -13 8 -8 3 -14
-1 -14 -8z"/>
<path d="M3905 4480 c-3 -5 1 -10 9 -10 9 0 16 -5 16 -11 0 -5 5 -7 12 -3 8 5
9 2 5 -10 -4 -10 -3 -15 4 -11 5 4 16 1 24 -5 8 -7 15 -9 15 -4 -1 16 -78 65
-85 54z"/>
<path d="M3447 4443 c-10 -9 -9 -23 1 -23 5 0 9 7 9 15 0 17 -1 18 -10 8z"/>
<path d="M4007 4409 c7 -7 15 -10 18 -7 3 3 -2 9 -12 12 -14 6 -15 5 -6 -5z"/>
<path d="M4045 4381 c-3 -5 -2 -12 3 -15 5 -3 9 1 9 9 0 17 -3 19 -12 6z"/>
<path d="M3496 4347 c3 -10 9 -15 12 -12 3 3 0 11 -7 18 -10 9 -11 8 -5 -6z"/>
<path d="M4133 4313 c1 -17 4 -19 14 -11 15 12 18 22 4 14 -5 -4 -11 0 -14 6
-3 7 -4 3 -4 -9z"/>
<path d="M3080 4195 c-7 -8 -9 -15 -6 -15 4 0 14 7 22 15 9 8 11 15 6 15 -5 0
-15 -7 -22 -15z"/>
<path d="M4255 4200 c-7 -11 22 -26 32 -16 4 3 -1 6 -11 6 -9 0 -14 5 -11 10
3 6 4 10 1 10 -3 0 -8 -5 -11 -10z"/>
<path d="M1694 4168 l-19 -23 25 20 c14 11 27 21 29 22 2 2 0 3 -6 3 -5 0 -18
-10 -29 -22z"/>
<path d="M3498 4183 c7 -3 16 -2 19 1 4 3 -2 6 -13 5 -11 0 -14 -3 -6 -6z"/>
<path d="M4330 4120 c6 -11 13 -20 16 -20 2 0 0 9 -6 20 -6 11 -13 20 -16 20
-2 0 0 -9 6 -20z"/>
<path d="M4250 4096 c0 -2 7 -7 16 -10 8 -3 12 -2 9 4 -6 10 -25 14 -25 6z"/>
<path d="M1613 4075 c-7 -8 -9 -16 -5 -19 4 -3 13 4 20 15 14 22 3 25 -15 4z"/>
<path d="M1581 4036 c-9 -11 -9 -16 1 -22 7 -4 10 -4 6 1 -4 4 -3 14 3 22 6 7
9 13 6 13 -2 0 -10 -6 -16 -14z"/>
<path d="M2886 4005 c-9 -26 -7 -32 5 -12 6 10 9 21 6 23 -2 3 -7 -2 -11 -11z"/>
<path d="M1500 3912 c-8 -9 -23 -29 -33 -44 -14 -22 -14 -26 -2 -22 8 4 15 12
15 20 0 8 4 14 8 14 5 0 14 11 20 25 14 30 12 31 -8 7z"/>
<path d="M3080 3919 c0 -5 5 -7 10 -4 6 3 10 8 10 11 0 2 -4 4 -10 4 -5 0 -10
-5 -10 -11z"/>
<path d="M3044 3834 c-38 -47 -74 -91 -79 -97 -48 -55 -82 -109 -105 -165 -15
-37 -44 -104 -64 -149 -34 -80 -35 -83 -16 -93 11 -6 20 -20 20 -32 0 -33 -39
-88 -62 -88 -17 0 -18 -2 -8 -15 22 -26 75 -18 115 16 19 17 35 37 35 44 0 7
-16 -3 -35 -22 -34 -34 -55 -37 -55 -7 0 9 5 12 13 8 6 -4 9 -3 4 1 -4 5 -1
18 6 29 19 28 13 56 -15 79 -13 10 -18 16 -13 14 6 -3 12 4 12 16 1 12 7 23
13 25 5 2 10 9 10 16 0 8 9 25 20 39 11 14 17 32 14 41 -3 9 -1 16 4 16 6 0
14 17 18 38 4 20 13 50 21 65 11 22 17 26 28 17 10 -8 15 -8 20 0 4 6 4 14 1
17 -3 4 -6 1 -6 -6 0 -7 -4 -9 -10 -6 -6 4 -5 13 2 25 7 10 16 16 22 13 5 -3
6 -2 3 4 -7 12 30 76 41 69 4 -3 14 0 22 6 12 8 11 9 -5 4 l-20 -6 20 16 c11
8 19 19 18 24 -1 4 7 16 17 25 11 10 20 24 20 30 0 11 27 29 40 27 3 0 5 11 5
24 0 13 0 24 -1 24 0 0 -31 -39 -70 -86z"/>
<path d="M1436 3813 c-6 -14 -5 -15 5 -6 7 7 10 15 7 18 -3 3 -9 -2 -12 -12z"/>
<path d="M2985 3719 c-4 -6 -5 -12 -2 -15 2 -3 7 2 10 11 7 17 1 20 -8 4z"/>
<path d="M3004 3709 c-3 -6 -2 -15 3 -20 5 -5 9 -1 9 11 0 23 -2 24 -12 9z"/>
<path d="M3200 3644 l-45 -45 50 19 c48 19 67 44 48 63 -5 5 -27 -10 -53 -37z"/>
<path d="M3895 3649 c-4 -6 -5 -12 -2 -15 2 -3 7 2 10 11 7 17 1 20 -8 4z"/>
<path d="M3158 3593 c-17 -3 -42 -21 -63 -46 l-35 -41 27 -23 c37 -29 63 -28
148 6 58 24 71 32 73 54 6 47 -49 65 -150 50z m123 -22 c4 0 9 -10 12 -21 4
-15 -1 -22 -18 -26 -13 -3 -29 -3 -36 2 -7 4 -9 3 -6 -3 9 -15 -57 -45 -79
-36 -13 5 -15 3 -9 -7 9 -15 -9 -6 -38 18 -16 15 -16 17 16 47 30 28 38 31 92
29 33 -1 63 -2 66 -3z"/>
<path d="M3160 3560 c0 -5 5 -10 11 -10 5 0 7 5 4 10 -3 6 -8 10 -11 10 -2 0
-4 -4 -4 -10z"/>
<path d="M3110 3511 c0 -6 4 -13 10 -16 6 -3 7 1 4 9 -7 18 -14 21 -14 7z"/>
<path d="M3188 3503 c7 -3 16 -2 19 1 4 3 -2 6 -13 5 -11 0 -14 -3 -6 -6z"/>
<path d="M3715 3589 c-4 -6 -5 -12 -2 -15 2 -3 7 2 10 11 7 17 1 20 -8 4z"/>
<path d="M2741 3531 c-8 -5 -9 -11 -3 -15 5 -3 12 1 16 9 6 17 6 18 -13 6z"/>
<path d="M3014 3421 l-30 -59 89 -41 c84 -39 90 -40 103 -24 20 27 17 67 -8
98 -19 25 -103 85 -117 85 -4 0 -20 -27 -37 -59z m87 4 c24 -14 40 -25 35 -25
-5 0 -2 -8 7 -17 8 -10 19 -30 22 -45 9 -37 -9 -37 -78 -1 -29 15 -55 27 -59
28 -3 0 -10 4 -15 9 -5 5 -3 6 5 2 11 -6 17 11 13 37 0 4 4 7 9 7 6 0 10 7 10
15 0 19 0 19 51 -10z"/>
<path d="M3352 3454 c-7 -8 -8 -14 -3 -14 10 0 25 19 20 25 -2 1 -10 -3 -17
-11z"/>
<path d="M3640 3305 c-7 -9 -8 -15 -2 -15 5 0 12 7 16 15 3 8 4 15 2 15 -2 0
-9 -7 -16 -15z"/>
<path d="M2716 3244 c-4 -9 -4 -19 -1 -22 3 -3 5 0 5 7 0 7 4 9 10 6 6 -3 7 1
4 9 -8 20 -10 20 -18 0z"/>
<path d="M3246 3182 c-2 -4 4 -8 14 -8 10 0 16 4 14 8 -3 4 -9 8 -14 8 -5 0
-11 -4 -14 -8z"/>
<path d="M1341 3164 c0 -11 3 -14 6 -6 3 7 2 16 -1 19 -3 4 -6 -2 -5 -13z"/>
<path d="M2380 3110 c0 -5 5 -10 11 -10 5 0 7 5 4 10 -3 6 -8 10 -11 10 -2 0
-4 -4 -4 -10z"/>
<path d="M1769 3097 c9 -11 0 -12 -47 -6 -68 10 -226 3 -252 -11 -9 -5 -21 -6
-25 -2 -5 4 -5 2 -1 -5 4 -7 -2 -21 -14 -33 -21 -21 -36 -27 -26 -11 8 12 -33
0 -61 -19 -21 -14 -34 -48 -14 -35 19 11 20 -13 2 -49 -11 -21 -15 -39 -9 -42
5 -3 8 -16 7 -27 0 -12 0 -24 1 -27 1 -3 4 -23 6 -44 5 -64 9 -67 56 -62 27 3
48 12 55 24 12 16 21 17 85 10 40 -4 111 -5 158 -3 60 3 86 1 92 -8 6 -9 8 -8
8 2 0 11 4 10 14 -4 10 -14 27 -19 63 -19 46 -1 50 1 47 22 -1 12 1 22 4 22 4
0 7 19 8 42 0 24 3 54 6 68 3 14 3 19 1 13 -8 -25 -20 -13 -17 17 2 16 -1 32
-6 35 -6 3 -10 11 -10 16 0 6 5 7 10 4 6 -4 9 -1 8 6 -2 7 8 18 22 26 l25 13
-27 0 c-15 0 -30 5 -34 12 -4 6 -3 8 4 4 6 -3 13 -2 16 3 7 11 -65 2 -81 -11
-7 -6 -14 -5 -18 2 -3 5 -3 10 1 10 4 0 -1 7 -12 16 -10 8 -12 12 -4 8 8 -4 2
7 -14 24 -29 31 -49 45 -27 19z m36 -77 c17 -25 42 -50 55 -57 35 -18 40 -31
40 -130 l0 -93 -40 0 c-36 0 -40 2 -40 25 0 24 -3 25 -32 20 -48 -8 -180 -11
-273 -5 -78 4 -80 4 -78 -18 3 -20 -2 -22 -42 -22 l-45 0 0 94 c0 89 1 96 25
114 32 25 31 32 -1 32 -16 0 -24 5 -22 13 7 18 47 21 54 3 8 -20 24 -21 24 -2
0 8 12 28 26 45 l26 32 146 -3 145 -3 32 -45z m100 -19 c8 -14 -30 -32 -49
-25 -30 11 -16 34 20 34 13 0 25 -4 29 -9z"/>
<path d="M1693 3053 c9 -2 25 -2 35 0 9 3 1 5 -18 5 -19 0 -27 -2 -17 -5z"/>
<path d="M1423 2957 c0 -9 40 -11 156 -10 229 4 241 5 246 14 3 4 -86 8 -198
8 -152 0 -204 -3 -204 -12z"/>
<path d="M1815 2940 c-18 -8 -17 -9 8 -9 16 -1 26 3 22 9 -3 6 -7 10 -8 9 -1
0 -11 -4 -22 -9z"/>
<path d="M1480 2900 c14 -10 27 -17 29 -15 8 8 -22 35 -38 35 -12 0 -10 -5 9
-20z"/>
<path d="M1852 2894 c-13 -6 -20 -14 -14 -18 10 -6 50 19 42 27 -3 2 -16 -2
-28 -9z"/>
<path d="M1428 2873 c12 -2 30 -2 40 0 9 3 -1 5 -23 4 -22 0 -30 -2 -17 -4z"/>
<path d="M1798 2873 c7 -3 16 -2 19 1 4 3 -2 6 -13 5 -11 0 -14 -3 -6 -6z"/>
<path d="M1388 2783 c6 -2 18 -2 25 0 6 3 1 5 -13 5 -14 0 -19 -2 -12 -5z"/>
<path d="M2333 3093 c4 -19 2 -21 -20 -12 -32 12 -73 12 -73 -1 0 -5 -4 -10
-10 -10 -5 0 -9 5 -7 12 1 6 -6 14 -15 16 -12 2 -18 -3 -18 -13 0 -11 -6 -15
-18 -11 -25 8 -77 -9 -103 -33 -13 -12 -19 -21 -13 -21 5 0 3 -4 -5 -9 -8 -5
-15 -20 -16 -33 -1 -12 -7 -23 -14 -23 -17 0 -41 -34 -41 -57 0 -21 18 -30 64
-33 17 -1 39 -5 49 -9 18 -9 35 -1 24 10 -4 4 -30 12 -59 19 -35 8 -54 17 -56
28 -5 25 25 21 86 -12 28 -16 52 -25 52 -20 0 5 -5 9 -11 9 -6 0 -9 6 -6 14 4
10 0 12 -15 8 -14 -3 -19 -1 -14 6 4 7 1 12 -8 12 -9 0 -16 4 -16 8 0 12 32
11 48 -1 6 -5 12 -6 12 -1 0 11 232 10 249 -1 9 -5 9 -11 -2 -23 -8 -10 -18
-24 -22 -32 -7 -11 -4 -11 11 2 10 9 41 26 67 37 40 17 49 18 53 6 9 -23 -3
-32 -55 -39 -29 -4 -51 -12 -55 -21 -4 -12 2 -14 30 -9 79 12 139 53 115 77
-10 9 -11 8 -6 -8 l7 -20 -13 20 c-18 29 -30 34 -56 24 -16 -6 -22 -5 -18 1 3
6 13 10 21 10 18 0 18 24 -1 40 -12 10 -13 16 -3 29 11 14 11 14 -3 3 -14 -10
-19 -8 -33 13 -10 14 -29 31 -44 38 -15 6 -31 16 -35 22 -5 6 -7 1 -4 -12z
m86 -83 l32 -40 -201 0 -202 0 32 40 32 40 137 0 138 0 32 -40z"/>
<path d="M4268 3103 c7 -3 16 -2 19 1 4 3 -2 6 -13 5 -11 0 -14 -3 -6 -6z"/>
<path d="M1800 3092 c0 -15 28 -23 36 -9 4 7 4 9 -1 5 -4 -4 -14 -3 -22 3 -8
7 -13 8 -13 1z"/>
<path d="M3662 3084 c-8 -9 -22 -12 -35 -9 -15 4 -18 3 -9 -3 11 -7 9 -11 -8
-15 -15 -4 -21 -11 -17 -21 3 -8 1 -18 -5 -22 -7 -4 -8 -3 -4 4 4 7 2 12 -3
12 -21 0 -26 2 -40 13 -11 9 -13 9 -8 0 4 -6 1 -14 -5 -17 -7 -3 -1 -3 15 -1
19 3 27 -1 27 -12 0 -9 -6 -13 -14 -10 -8 3 -20 -1 -26 -9 -7 -8 -9 -14 -4
-14 4 0 3 -5 -4 -12 -7 -7 -12 -29 -12 -49 0 -31 4 -38 28 -47 39 -16 92 -19
100 -6 4 6 16 15 26 21 17 9 11 14 -42 33 -34 12 -59 26 -57 31 3 4 -7 6 -21
3 -23 -4 -25 -3 -15 10 7 8 18 13 26 10 7 -3 27 12 46 35 l32 41 138 0 137 0
33 -37 33 -38 -202 -3 c-172 -2 -200 -5 -196 -17 4 -8 10 -12 15 -9 6 3 17 0
26 -8 12 -9 15 -9 9 0 -4 6 -2 12 3 12 6 0 11 -5 11 -11 0 -5 5 -7 11 -3 12 7
236 12 257 6 18 -6 15 -21 -13 -46 -18 -17 -22 -25 -13 -34 13 -13 41 -16 52
-5 4 4 17 8 29 8 31 1 67 15 68 26 1 5 2 14 3 19 0 6 8 15 16 21 13 9 13 10
-2 6 -9 -3 -22 0 -28 8 -6 7 -21 11 -33 8 -20 -4 -21 -3 -5 10 16 13 16 15 0
37 -41 56 -61 70 -97 70 -21 0 -35 5 -35 13 0 12 -70 18 -80 6 -3 -3 -26 -9
-52 -12 -39 -5 -46 -4 -42 8 8 19 3 18 -14 -1z m-69 -171 c57 -29 50 -39 -18
-28 -47 7 -60 17 -51 40 7 20 8 19 69 -12z m427 8 c0 -15 -24 -28 -64 -34 -22
-4 -43 -12 -47 -19 -4 -7 -11 -9 -14 -6 -11 11 4 27 43 48 39 20 82 26 82 11z"/>
<path d="M3738 3093 c7 -3 16 -2 19 1 4 3 -2 6 -13 5 -11 0 -14 -3 -6 -6z"/>
<path d="M3865 3090 c-3 -5 -1 -10 4 -10 6 0 11 5 11 10 0 6 -2 10 -4 10 -3 0
-8 -4 -11 -10z"/>
<path d="M1996 3021 c-3 -5 3 -11 15 -14 16 -4 18 -3 8 9 -13 16 -16 17 -23 5z"/>
<path d="M3997 3019 c7 -7 15 -10 18 -7 3 3 -2 9 -12 12 -14 6 -15 5 -6 -5z"/>
<path d="M4045 3010 c3 -5 14 -10 23 -10 15 0 15 2 2 10 -20 13 -33 13 -25 0z"/>
<path d="M3225 2990 c3 -5 8 -10 11 -10 2 0 4 5 4 10 0 6 -5 10 -11 10 -5 0
-7 -4 -4 -10z"/>
<path d="M4008 2993 c7 -3 16 -2 19 1 4 3 -2 6 -13 5 -11 0 -14 -3 -6 -6z"/>
<path d="M4050 2960 c0 -5 5 -10 11 -10 5 0 7 5 4 10 -3 6 -8 10 -11 10 -2 0
-4 -4 -4 -10z"/>
<path d="M1951 2944 c0 -11 3 -14 6 -6 3 7 2 16 -1 19 -3 4 -6 -2 -5 -13z"/>
<path d="M3482 2910 c0 -19 2 -27 5 -17 2 9 2 25 0 35 -3 9 -5 1 -5 -18z"/>
<path d="M1961 2894 c0 -11 3 -14 6 -6 3 7 2 16 -1 19 -3 4 -6 -2 -5 -13z"/>
<path d="M2859 2893 c-13 -16 -12 -17 4 -4 16 13 21 21 13 21 -2 0 -10 -8 -17
-17z"/>
<path d="M4047 2893 c-3 -5 -1 -17 4 -28 6 -17 7 -16 6 8 -1 28 -3 32 -10 20z"/>
<path d="M2515 2880 c-3 -6 1 -7 9 -4 18 7 21 14 7 14 -6 0 -13 -4 -16 -10z"/>
<path d="M1981 2844 c0 -11 3 -14 6 -6 3 7 2 16 -1 19 -3 4 -6 -2 -5 -13z"/>
<path d="M3650 2800 c0 -6 7 -10 15 -10 8 0 15 2 15 4 0 2 -7 6 -15 10 -8 3
-15 1 -15 -4z"/>
<path d="M2140 2790 c-21 -7 -21 -8 -5 -9 11 0 27 4 35 9 18 11 5 11 -30 0z"/>
<path d="M3750 2790 c0 -5 5 -10 10 -10 6 0 10 5 10 10 0 6 -4 10 -10 10 -5 0
-10 -4 -10 -10z"/>
<path d="M2260 2780 c0 -5 5 -10 10 -10 6 0 10 5 10 10 0 6 -4 10 -10 10 -5 0
-10 -4 -10 -10z"/>
<path d="M2453 2774 c-3 -8 -1 -20 5 -26 7 -7 10 -2 9 16 -2 30 -5 32 -14 10z"/>
<path d="M3608 2783 c6 -2 18 -2 25 0 6 3 1 5 -13 5 -14 0 -19 -2 -12 -5z"/>
<path d="M3868 2783 c7 -3 16 -2 19 1 4 3 -2 6 -13 5 -11 0 -14 -3 -6 -6z"/>
<path d="M1986 2771 c-4 -7 -5 -15 -2 -18 9 -9 19 4 14 18 -4 11 -6 11 -12 0z"/>
<path d="M1318 2743 c5 -21 7 -23 10 -9 2 10 0 22 -6 28 -6 6 -7 0 -4 -19z"/>
<path d="M2020 2760 c-13 -8 -12 -10 3 -10 9 0 17 5 17 10 0 12 -1 12 -20 0z"/>
<path d="M3975 2760 c-3 -5 -1 -10 4 -10 6 0 11 5 11 10 0 6 -2 10 -4 10 -3 0
-8 -4 -11 -10z"/>
<path d="M3519 2747 c5 -5 19 -7 32 -5 20 3 19 5 -9 9 -20 3 -29 2 -23 -4z"/>
<path d="M2198 2473 c7 -3 16 -2 19 1 4 3 -2 6 -13 5 -11 0 -14 -3 -6 -6z"/>
<path d="M4509 2063 c-8 -9 -9 -14 -2 -10 6 4 13 1 16 -5 3 -7 4 -3 4 10 -1
26 -1 26 -18 5z"/>
<path d="M1556 1931 c-3 -5 1 -11 9 -14 9 -4 12 -1 8 9 -6 16 -10 17 -17 5z"/>
<path d="M4419 1914 l-24 -27 28 18 c15 9 27 21 27 26 0 14 -5 11 -31 -17z"/>
<path d="M1587 1884 c3 -8 15 -19 27 -25 19 -9 19 -9 4 4 -10 8 -15 16 -12 19
2 3 -2 8 -10 11 -10 4 -13 1 -9 -9z"/>
<path d="M4366 1840 c-14 -17 -29 -30 -33 -30 -4 0 -8 -4 -8 -9 0 -10 -45 -56
-55 -56 -3 0 -14 -6 -25 -12 -13 -8 -15 -12 -6 -13 8 0 12 -3 9 -6 -4 -3 -9
-5 -13 -4 -3 0 -20 -16 -36 -36 -16 -20 -29 -33 -29 -29 0 4 -16 -11 -37 -34
-24 -28 -42 -40 -52 -36 -8 3 -12 3 -8 -1 7 -7 -33 -41 -44 -37 -3 1 -6 -4 -6
-12 0 -20 18 -9 128 84 94 78 221 207 240 243 15 27 4 22 -25 -12z"/>
<path d="M1635 1831 c-6 -11 154 -177 235 -242 78 -63 138 -100 145 -90 3 6 1
12 -5 16 -5 3 -10 3 -10 -1 0 -4 -9 1 -20 11 -11 10 -17 22 -14 26 3 5 -1 7
-8 4 -17 -7 -63 26 -63 45 0 8 -10 16 -23 18 -12 2 -20 8 -16 13 3 5 2 9 -3 8
-22 -4 -31 3 -37 26 -4 15 -11 23 -17 19 -11 -6 -54 33 -54 51 -1 5 -6 9 -13
8 -11 -3 -16 10 -13 30 1 5 -3 6 -8 3 -11 -7 -33 18 -24 28 4 4 -1 4 -11 0
-14 -5 -17 -4 -12 4 4 7 1 12 -9 12 -9 0 -13 5 -10 10 3 6 4 10 1 10 -3 0 -7
-4 -11 -9z m255 -231 c0 -5 -2 -10 -4 -10 -3 0 -8 5 -11 10 -3 6 -1 10 4 10 6
0 11 -4 11 -10z"/>
<path d="M4000 1511 c0 -8 -8 -11 -20 -8 -12 3 -17 1 -14 -5 3 -5 -1 -8 -9 -6
-9 2 -15 0 -14 -4 1 -4 -7 -14 -18 -22 -17 -13 -17 -15 -4 -16 9 0 22 7 29 15
7 8 18 15 25 15 16 0 40 28 31 37 -3 3 -6 1 -6 -6z"/>
<path d="M2027 1493 c-7 -11 7 -26 34 -35 9 -4 16 -1 16 7 0 8 -7 11 -15 7
-11 -4 -13 -1 -7 8 5 8 4 11 -3 6 -5 -3 -12 -1 -14 6 -3 8 -6 9 -11 1z"/>
<path d="M2155 1410 c-3 -6 1 -7 9 -4 18 7 21 14 7 14 -6 0 -13 -4 -16 -10z"/>
<path d="M2195 1385 c11 -9 29 -21 40 -26 l20 -10 -20 16 c-11 9 -29 21 -40
26 l-20 10 20 -16z"/>
<path d="M3788 1393 c7 -3 16 -2 19 1 4 3 -2 6 -13 5 -11 0 -14 -3 -6 -6z"/>
<path d="M3705 1350 c-16 -7 -17 -9 -3 -9 9 -1 20 4 23 9 7 11 7 11 -20 0z"/>
<path d="M2317 1329 c7 -7 15 -10 18 -7 3 3 -2 9 -12 12 -14 6 -15 5 -6 -5z"/>
<path d="M2598 1323 c7 -3 16 -2 19 1 4 3 -2 6 -13 5 -11 0 -14 -3 -6 -6z"/>
<path d="M1580 4150 c-9 -6 -10 -10 -3 -10 6 0 15 5 18 10 8 12 4 12 -15 0z"/>
<path d="M2258 5053 c7 -3 16 -2 19 1 4 3 -2 6 -13 5 -11 0 -14 -3 -6 -6z"/>
<path d="M2235 5010 c-3 -6 1 -7 9 -4 18 7 21 14 7 14 -6 0 -13 -4 -16 -10z"/>
<path d="M3134 4943 c2 -10 6 -17 10 -16 15 3 16 11 2 22 -12 10 -14 9 -12 -6z"/>
<path d="M4091 4896 c-13 -7 -33 -11 -43 -8 -11 3 -25 -3 -34 -14 -9 -11 -12
-12 -8 -4 4 8 -4 3 -19 -12 -14 -16 -30 -28 -36 -28 -5 0 -16 -6 -23 -12 -73
-69 -157 -136 -163 -130 -5 4 -5 1 -1 -6 6 -10 11 -10 22 -1 12 9 13 9 9 -3
-4 -11 2 -18 19 -22 14 -3 26 -11 26 -16 0 -17 29 -11 47 9 18 22 43 17 43 -8
0 -12 2 -13 9 -3 12 20 36 -13 33 -47 -2 -26 5 -32 81 -69 4 -2 7 0 6 5 -3 20
2 27 10 14 7 -10 8 0 6 30 -2 24 1 62 6 84 5 22 16 66 23 98 9 37 10 57 4 57
-6 0 -5 6 2 15 7 8 8 15 4 15 -5 0 -15 9 -22 20 -10 17 -8 21 16 34 15 9 23
15 17 15 -5 0 -21 -6 -34 -13z m-4 -71 c-3 -6 -13 -69 -23 -141 -10 -71 -18
-130 -19 -131 -1 -2 -13 3 -28 10 -21 10 -25 18 -24 47 2 32 -2 37 -45 60 -45
24 -47 24 -66 6 -18 -15 -23 -16 -47 -4 l-26 14 118 91 c113 88 118 90 140 75
13 -8 22 -20 20 -27z"/>
<path d="M3987 4764 c-20 -19 -37 -36 -37 -39 0 -2 13 -11 29 -20 l29 -15 11
52 c6 28 10 52 9 54 -2 1 -20 -13 -41 -32z"/>
<path d="M3930 4861 c0 -6 4 -13 10 -16 6 -3 7 1 4 9 -7 18 -14 21 -14 7z"/>
<path d="M2527 4811 c-4 -17 -3 -21 5 -13 5 5 8 16 6 23 -3 8 -7 3 -11 -10z"/>
<path d="M4135 4819 c-4 -6 -5 -12 -2 -15 2 -3 7 2 10 11 7 17 1 20 -8 4z"/>
<path d="M4250 4766 c0 -2 7 -7 16 -10 8 -3 12 -2 9 4 -6 10 -25 14 -25 6z"/>
<path d="M4400 4696 c0 -2 8 -10 18 -17 15 -13 16 -12 3 4 -13 16 -21 21 -21
13z"/>
<path d="M3777 4649 c7 -7 15 -10 18 -7 3 3 -2 9 -12 12 -14 6 -15 5 -6 -5z"/>
<path d="M3810 4640 c0 -5 5 -10 11 -10 5 0 7 5 4 10 -3 6 -8 10 -11 10 -2 0
-4 -4 -4 -10z"/>
<path d="M4085 4631 c-3 -5 -2 -12 3 -15 5 -3 9 1 9 9 0 17 -3 19 -12 6z"/>
<path d="M4324 4632 c3 -6 -2 -13 -11 -15 -16 -4 -16 -5 -1 -6 21 -1 32 15 17
25 -7 4 -9 3 -5 -4z"/>
<path d="M3797 4619 c7 -7 15 -10 18 -7 3 3 -2 9 -12 12 -14 6 -15 5 -6 -5z"/>
<path d="M4460 4590 c-9 -6 -10 -10 -3 -10 6 0 15 5 18 10 8 12 4 12 -15 0z"/>
<path d="M4532 4587 c-8 -10 -6 -13 7 -13 11 0 17 6 14 13 -3 7 -6 13 -8 13
-1 0 -7 -6 -13 -13z"/>
<path d="M1389 4523 c-13 -16 -12 -17 4 -4 9 7 17 15 17 17 0 8 -8 3 -21 -13z"/>
<path d="M4614 4510 c0 -13 4 -16 10 -10 7 7 7 13 0 20 -6 6 -10 3 -10 -10z"/>
<path d="M1395 4460 c-3 -6 1 -7 9 -4 18 7 21 14 7 14 -6 0 -13 -4 -16 -10z"/>
<path d="M4215 4360 c10 -11 20 -20 23 -20 3 0 -3 9 -13 20 -10 11 -20 20 -23
20 -3 0 3 -9 13 -20z"/>
<path d="M4337 4363 c-4 -3 -7 -16 -6 -27 0 -19 1 -19 10 3 10 24 8 36 -4 24z"/>
<path d="M1257 4343 c3 -7 6 -13 8 -13 2 0 5 6 8 13 3 8 -1 14 -8 14 -7 0 -11
-6 -8 -14z"/>
<path d="M1236 4322 c-3 -5 1 -9 9 -9 8 0 12 4 9 9 -3 4 -7 8 -9 8 -2 0 -6 -4
-9 -8z"/>
<path d="M1416 4313 c-6 -14 -5 -15 5 -6 7 7 10 15 7 18 -3 3 -9 -2 -12 -12z"/>
<path d="M4595 4286 c-31 -14 -60 -37 -75 -59 -13 -19 -28 -33 -32 -31 -4 2
-7 -4 -8 -13 -1 -45 -5 -61 -12 -57 -4 3 -8 0 -8 -5 0 -6 5 -11 11 -11 7 0 10
-12 7 -29 -3 -18 0 -28 6 -24 5 4 7 -1 3 -11 -4 -9 -3 -14 2 -11 5 3 22 -6 38
-21 15 -14 23 -23 16 -20 -6 4 -14 2 -18 -3 -3 -6 4 -8 17 -6 12 3 38 1 56 -5
26 -7 45 -5 78 9 25 9 41 21 37 25 -4 5 2 4 13 -2 18 -10 21 -9 20 6 0 9 5 16
12 14 8 -1 11 2 8 7 -6 10 18 34 26 26 2 -3 5 2 5 10 0 8 -5 11 -11 8 -6 -4
-3 3 7 14 19 21 23 78 7 88 -6 4 -7 11 -4 17 5 7 2 8 -6 3 -8 -5 -11 -3 -8 6
5 15 -3 25 -49 57 -18 13 -38 20 -44 16 -8 -5 -9 -3 -4 6 6 10 3 12 -13 8 -12
-3 -22 -2 -24 3 -2 5 -26 -2 -53 -15z m115 -31 c115 -59 85 -200 -52 -244 -79
-26 -158 32 -158 114 0 98 124 175 210 130z"/>
<path d="M4584 4176 c-19 -19 -34 -42 -34 -53 0 -32 29 -63 59 -63 34 0 90 36
110 72 13 23 13 28 -2 52 -14 21 -25 26 -58 26 -33 0 -47 -6 -75 -34z m66 2
c0 -10 2 -10 8 0 11 16 42 5 42 -15 0 -26 -21 -55 -36 -49 -8 3 -13 0 -11 -7
1 -7 -6 -11 -15 -11 -10 1 -18 -2 -18 -6 0 -5 -8 -7 -17 -6 -22 4 -30 36 -11
47 10 7 10 9 0 9 -7 0 -10 5 -7 10 4 6 11 7 17 4 6 -4 8 -2 4 4 -3 6 2 15 11
21 24 14 33 13 33 -1z"/>
<path d="M4650 4136 c0 -2 7 -7 16 -10 8 -3 12 -2 9 4 -6 10 -25 14 -25 6z"/>
<path d="M4600 4115 c-11 -13 -10 -14 4 -9 9 3 16 10 16 15 0 13 -6 11 -20 -6z"/>
<path d="M1220 4290 c-9 -6 -10 -10 -3 -10 6 0 15 5 18 10 8 12 4 12 -15 0z"/>
<path d="M1175 4251 c-3 -5 -2 -12 3 -15 5 -3 9 1 9 9 0 17 -3 19 -12 6z"/>
<path d="M1207 4247 c-3 -8 -2 -20 3 -26 5 -9 8 -4 8 13 0 29 -3 32 -11 13z"/>
<path d="M4500 4230 c-9 -6 -10 -10 -3 -10 6 0 15 5 18 10 8 12 4 12 -15 0z"/>
<path d="M1090 4101 c0 -6 4 -13 10 -16 6 -3 7 1 4 9 -7 18 -14 21 -14 7z"/>
<path d="M5052 3755 c0 -16 2 -22 5 -12 2 9 2 23 0 30 -3 6 -5 -1 -5 -18z"/>
<path d="M4966 2067 c3 -10 9 -15 12 -12 3 3 0 11 -7 18 -10 9 -11 8 -5 -6z"/>
<path d="M1386 2013 c-6 -14 -5 -15 5 -6 7 7 10 15 7 18 -3 3 -9 -2 -12 -12z"/>
<path d="M4895 1901 c-3 -5 -2 -12 3 -15 5 -3 9 1 9 9 0 17 -3 19 -12 6z"/>
<path d="M1184 1740 c0 -13 4 -16 10 -10 7 7 7 13 0 20 -6 6 -10 3 -10 -10z"/>
<path d="M1606 1688 c3 -5 10 -6 15 -3 13 9 11 12 -6 12 -8 0 -12 -4 -9 -9z"/>
<path d="M4726 1667 c3 -10 9 -15 12 -12 3 3 0 11 -7 18 -10 9 -11 8 -5 -6z"/>
<path d="M4273 1653 c-7 -2 -13 -9 -13 -15 0 -7 5 -7 13 1 8 6 18 7 22 3 5 -4
5 -1 1 6 -4 6 -8 12 -9 11 -1 0 -8 -3 -14 -6z"/>
<path d="M1683 1616 c-3 -5 -1 -6 5 -2 7 4 12 1 12 -6 0 -10 2 -10 9 1 5 8 14
10 21 6 8 -5 11 -4 6 3 -8 13 -45 12 -53 -2z"/>
<path d="M4653 1584 c0 -7 6 -10 14 -7 7 3 13 -1 13 -8 0 -7 2 -10 5 -7 3 3 3
12 0 20 -7 18 -32 20 -32 2z"/>
<path d="M4195 1580 c-3 -5 -1 -10 4 -10 6 0 11 5 11 10 0 6 -2 10 -4 10 -3 0
-8 -4 -11 -10z"/>
<path d="M1336 1562 c-3 -5 1 -9 9 -9 8 0 12 4 9 9 -3 4 -7 8 -9 8 -2 0 -6 -4
-9 -8z"/>
<path d="M1780 1550 c0 -5 5 -10 11 -10 5 0 7 5 4 10 -3 6 -8 10 -11 10 -2 0
-4 -4 -4 -10z"/>
<path d="M1422 1501 c7 -9 13 -18 15 -20 1 -2 1 5 0 16 0 11 -7 20 -14 20 -10
0 -10 -4 -1 -16z"/>
<path d="M1380 1486 c0 -2 8 -10 18 -17 15 -13 16 -12 3 4 -13 16 -21 21 -21
13z"/>
<path d="M4055 1450 c-3 -6 1 -7 9 -4 18 7 21 14 7 14 -6 0 -13 -4 -16 -10z"/>
<path d="M1490 1435 c0 -2 6 -8 13 -14 10 -8 14 -7 14 2 0 8 -6 14 -14 14 -7
0 -13 -1 -13 -2z"/>
<path d="M4483 1423 c0 -9 4 -10 14 -2 7 6 13 12 13 14 0 1 -6 2 -13 2 -8 0
-14 -6 -14 -14z"/>
<path d="M4515 1420 c-3 -6 1 -7 9 -4 18 7 21 14 7 14 -6 0 -13 -4 -16 -10z"/>
<path d="M3974 1374 c-18 -14 -18 -15 4 -4 12 6 22 13 22 15 0 8 -5 6 -26 -11z"/>
<path d="M1550 1342 c11 -23 12 -23 31 -6 10 9 19 20 19 23 0 3 -8 -2 -17 -11
-15 -16 -17 -16 -30 0 -12 15 -13 14 -3 -6z"/>
<path d="M2180 1300 c-8 -5 -10 -10 -5 -10 6 0 17 5 25 10 8 5 11 10 5 10 -5
0 -17 -5 -25 -10z"/>
<path d="M4215 1180 c-3 -6 1 -7 9 -4 18 7 21 14 7 14 -6 0 -13 -4 -16 -10z"/>
<path d="M4107 1099 c7 -7 15 -10 18 -7 3 3 -2 9 -12 12 -14 6 -15 5 -6 -5z"/>
<path d="M3687 939 c7 -7 15 -10 18 -7 3 3 -2 9 -12 12 -14 6 -15 5 -6 -5z"/>
<path d="M2290 929 c0 -5 5 -7 10 -4 6 3 10 8 10 11 0 2 -4 4 -10 4 -5 0 -10
-5 -10 -11z"/>
<path d="M3634 5233 c23 -4 26 -7 15 -15 -11 -8 -10 -9 4 -4 22 7 148 -41 160
-60 4 -8 13 -14 20 -14 7 0 6 4 -3 10 -30 19 10 10 53 -12 23 -12 48 -21 56
-19 7 1 10 -2 6 -8 -4 -7 3 -11 18 -11 14 0 30 -6 37 -14 6 -8 19 -12 28 -9
15 4 15 3 2 -6 -12 -9 -10 -11 13 -11 16 0 26 -4 22 -9 -3 -5 0 -13 6 -17 8
-4 9 -3 5 4 -4 7 -2 12 3 12 6 0 11 -4 11 -10 0 -5 7 -10 16 -10 8 0 13 -4 10
-9 -3 -5 0 -9 7 -8 42 1 50 -3 36 -20 -13 -15 -12 -15 10 -4 15 8 21 9 17 2
-6 -10 5 -15 26 -13 3 1 9 -5 11 -13 4 -10 -1 -13 -21 -11 -16 1 -26 8 -24 15
2 8 -3 11 -12 8 -8 -3 -20 1 -26 9 -7 8 -21 14 -31 14 -11 0 -19 5 -19 10 0 6
-5 10 -12 10 -6 0 -19 7 -29 16 -9 8 -23 17 -31 18 -52 11 -69 19 -56 28 10 8
10 9 -2 5 -23 -7 -62 11 -54 24 4 7 3 9 -3 6 -11 -7 -90 15 -125 34 -13 7 -29
12 -37 10 -7 -1 -10 2 -7 7 4 6 -3 8 -16 4 -15 -4 -19 -2 -13 7 6 10 2 11 -15
6 -17 -5 -21 -4 -15 5 5 9 4 11 -4 6 -6 -4 -27 2 -46 13 -19 11 -35 16 -35 11
0 -6 6 -10 13 -11 6 0 3 -5 -8 -10 -19 -9 -18 -9 3 -5 12 2 22 0 22 -5 0 -4 7
-5 17 -2 11 4 14 3 9 -5 -4 -7 -1 -12 6 -12 35 0 188 -59 328 -126 143 -69
281 -155 440 -273 36 -27 68 -46 73 -44 4 2 7 0 7 -6 0 -10 128 -141 139 -141
3 0 0 5 -7 12 -15 15 -16 31 0 22 7 -4 8 -3 4 5 -4 6 -11 9 -16 6 -10 -6 -33
29 -25 37 3 3 21 -9 39 -26 27 -23 32 -34 25 -47 -6 -12 -3 -24 12 -41 18 -21
19 -21 10 -2 -10 21 -6 34 11 34 5 0 7 -4 3 -9 -3 -5 -1 -12 5 -16 11 -7 13 6
4 29 -5 14 -9 14 -22 4 -13 -11 -15 -10 -9 5 7 19 -37 68 -168 184 -105 92
-158 131 -320 230 -140 86 -500 236 -559 232 -14 -1 -11 -3 8 -6z m411 -203
c3 -6 -1 -7 -9 -4 -18 7 -21 14 -7 14 6 0 13 -4 16 -10z m261 -127 c14 -13 25
-22 27 -22 13 2 37 -17 33 -27 -3 -8 2 -11 19 -8 26 5 43 -23 24 -40 -9 -8
-10 -7 -4 3 6 11 3 13 -13 9 -12 -4 -20 -2 -16 3 3 5 1 9 -5 9 -6 0 -27 15
-48 33 -20 17 -33 26 -28 18 6 -10 4 -12 -4 -7 -7 5 -10 15 -7 23 4 8 1 11 -5
8 -6 -4 -17 1 -25 11 -9 11 -12 12 -8 4 4 -8 3 -11 -2 -7 -4 4 -9 19 -10 32
l-1 24 25 -22 c13 -12 35 -32 48 -44z m141 -102 c-3 -15 0 -17 16 -13 14 3 18
1 13 -7 -4 -6 -12 -8 -18 -5 -7 4 -8 2 -4 -4 4 -6 13 -9 20 -6 8 3 17 0 21 -5
3 -6 11 -8 17 -5 6 4 9 3 6 -2 -5 -8 23 -43 29 -37 1 1 14 -8 28 -21 26 -24
18 -49 -9 -27 -7 6 -15 8 -18 5 -3 -3 -9 0 -14 7 -4 7 -3 10 4 5 6 -3 13 -2
17 4 3 5 -3 10 -14 10 -11 0 -25 9 -31 20 -6 11 -15 18 -19 16 -4 -3 -21 8
-36 24 -15 16 -32 27 -38 23 -5 -3 -4 4 2 16 14 26 35 28 28 2z"/>
<path d="M3510 5220 c-12 -8 -10 -10 8 -10 13 0 20 4 17 10 -7 12 -6 12 -25 0z"/>
<path d="M3560 5220 c-8 -5 -11 -12 -7 -16 4 -4 13 -2 19 4 15 15 7 24 -12 12z"/>
<path d="M3980 5076 c0 -2 7 -7 16 -10 8 -3 12 -2 9 4 -6 10 -25 14 -25 6z"/>
<path d="M1763 4935 c0 -6 6 -12 12 -12 6 0 12 6 12 12 0 6 -6 12 -12 12 -6 0
-12 -6 -12 -12z"/>
<path d="M1560 4806 c14 -17 13 -18 -6 -12 -30 9 -50 -16 -27 -35 11 -9 14
-10 9 -1 -4 6 -3 12 1 12 5 0 17 6 27 13 17 12 17 14 -1 28 -17 13 -17 13 -3
-5z m-10 -20 c0 -2 -7 -7 -16 -10 -8 -3 -12 -2 -9 4 6 10 25 14 25 6z"/>
<path d="M1471 4748 c-12 -12 -21 -26 -21 -30 0 -5 -4 -7 -8 -4 -4 2 -14 1
-22 -5 -13 -7 -13 -9 0 -10 8 -1 19 -1 23 0 4 1 10 -6 13 -14 3 -8 10 -12 16
-9 5 3 2 11 -7 17 -14 11 -14 14 0 35 9 12 20 20 25 17 5 -3 11 -1 14 4 13 21
-14 20 -33 -1z"/>
<path d="M1486 4722 c-3 -5 1 -9 9 -9 8 0 12 4 9 9 -3 4 -7 8 -9 8 -2 0 -6 -4
-9 -8z"/>
<path d="M1405 4680 c5 -8 3 -11 -5 -8 -17 5 -100 -83 -101 -108 0 -10 -3 -14
-6 -7 -3 9 -11 5 -26 -10 -43 -44 -107 -125 -107 -136 0 -6 -4 -11 -9 -11 -16
0 -20 -28 -5 -34 9 -3 12 -1 9 4 -8 13 20 41 31 32 5 -4 3 0 -4 9 -10 13 -5
21 28 49 22 18 42 41 45 50 3 9 12 17 20 17 16 0 19 -9 8 -21 -5 -4 -8 -13 -8
-19 -1 -7 -6 -11 -13 -10 -7 2 -9 -4 -5 -14 5 -12 2 -15 -10 -10 -12 4 -14 2
-10 -11 6 -15 5 -16 -13 -2 -18 14 -18 14 -4 -4 14 -18 16 -17 42 14 15 18 26
38 25 44 -1 6 3 10 10 9 12 -3 70 67 65 80 -1 4 2 7 7 7 14 0 66 51 64 61 -2
5 2 9 9 9 6 0 8 3 5 7 -9 8 -47 -27 -47 -44 0 -7 -5 -13 -11 -13 -5 0 -7 5 -3
12 4 7 3 8 -5 4 -6 -4 -9 -11 -6 -16 3 -4 -2 -11 -11 -14 -8 -3 -13 -10 -10
-15 8 -12 -19 -33 -29 -23 -5 4 -5 1 -1 -5 4 -8 1 -13 -7 -13 -10 0 -13 7 -10
21 4 12 11 18 20 15 8 -3 12 -2 8 3 -3 5 2 17 11 25 8 9 13 16 10 16 -3 0 2 9
11 19 9 11 20 18 24 16 4 -3 12 2 18 9 9 11 9 16 0 22 -8 5 -9 3 -4 -6z m-95
-164 c0 -6 -5 -3 -11 7 -6 9 -15 14 -21 11 -7 -4 -8 -2 -4 5 9 14 36 -3 36
-23z"/>
<path d="M4731 4540 c6 -14 23 -35 36 -48 25 -23 26 -50 3 -44 -11 3 -11 0 -1
-12 7 -9 18 -13 23 -10 5 3 7 9 4 12 -3 3 -2 10 3 16 7 8 -6 28 -36 61 -26 29
-40 40 -32 25z"/>
<path d="M4705 4520 c-8 -13 14 -42 26 -34 5 3 7 10 3 15 -3 5 -10 6 -16 3 -7
-5 -9 -1 -5 9 7 19 2 23 -8 7z"/>
<path d="M4753 4483 c4 -3 1 -13 -6 -22 -11 -14 -10 -14 5 -2 16 12 16 31 1
31 -4 0 -3 -3 0 -7z"/>
<path d="M4810 4415 c-10 -12 -11 -18 -1 -28 10 -9 11 -8 5 7 -6 15 -4 17 6
11 9 -5 11 -4 6 3 -4 7 -2 12 5 12 7 0 9 -10 7 -25 -4 -20 -3 -23 8 -14 9 7
14 7 14 1 0 -5 -7 -15 -15 -22 -8 -7 -15 -17 -15 -23 0 -6 7 -1 16 11 9 13 20
19 27 15 6 -4 2 8 -10 27 -26 41 -36 46 -53 25z"/>
<path d="M1105 4350 c-3 -5 -2 -10 4 -10 5 0 13 5 16 10 3 6 2 10 -4 10 -5 0
-13 -4 -16 -10z"/>
<path d="M4895 4330 c10 -11 20 -20 22 -20 2 0 -2 9 -9 20 -7 11 -17 20 -22
20 -5 0 -1 -9 9 -20z"/>
<path d="M1076 4309 c-8 -12 -12 -28 -9 -35 6 -17 14 -18 12 -1 -3 27 2 39 14
34 8 -3 14 1 14 9 0 20 -14 17 -31 -7z"/>
<path d="M4921 4279 c0 -13 3 -18 6 -10 5 11 7 11 14 0 5 -8 9 -9 9 -3 0 6 -7
17 -15 24 -13 10 -15 9 -14 -11z"/>
<path d="M1041 4243 c-10 -26 -10 -27 4 -9 8 11 15 23 15 28 0 15 -7 8 -19
-19z"/>
<path d="M4970 4216 c0 -2 8 -10 18 -17 15 -13 16 -12 3 4 -13 16 -21 21 -21
13z"/>
<path d="M5001 4164 c0 -11 3 -14 6 -6 3 7 2 16 -1 19 -3 4 -6 -2 -5 -13z"/>
<path d="M996 4162 c-3 -5 1 -9 9 -9 8 0 12 4 9 9 -3 4 -7 8 -9 8 -2 0 -6 -4
-9 -8z"/>
<path d="M966 4073 c-6 -14 -5 -15 5 -6 7 7 10 15 7 18 -3 3 -9 -2 -12 -12z"/>
<path d="M945 4029 c-4 -6 -5 -12 -2 -15 2 -3 7 2 10 11 7 17 1 20 -8 4z"/>
<path d="M711 3454 c0 -11 3 -14 6 -6 3 7 2 16 -1 19 -3 4 -6 -2 -5 -13z"/>
<path d="M702 3395 c0 -16 2 -22 5 -12 2 9 2 23 0 30 -3 6 -5 -1 -5 -18z"/>
<path d="M692 3340 c0 -14 2 -19 5 -12 2 6 2 18 0 25 -3 6 -5 1 -5 -13z"/>
<path d="M671 3184 c0 -11 3 -14 6 -6 3 7 2 16 -1 19 -3 4 -6 -2 -5 -13z"/>
<path d="M5300 2895 c0 -5 5 -17 10 -25 5 -8 10 -10 10 -5 0 6 -5 17 -10 25
-5 8 -10 11 -10 5z"/>
<path d="M5311 2824 c0 -11 3 -14 6 -6 3 7 2 16 -1 19 -3 4 -6 -2 -5 -13z"/>
<path d="M691 2754 c0 -11 3 -14 6 -6 3 7 2 16 -1 19 -3 4 -6 -2 -5 -13z"/>
<path d="M700 2661 c0 -6 4 -13 10 -16 6 -3 7 1 4 9 -7 18 -14 21 -14 7z"/>
<path d="M5096 2093 c-6 -14 -5 -15 5 -6 7 7 10 15 7 18 -3 3 -9 -2 -12 -12z"/>
<path d="M4829 1633 c-13 -17 -13 -17 5 -3 18 14 19 13 12 -5 -6 -16 -5 -18 5
-7 9 8 10 15 3 22 -8 8 -15 5 -25 -7z"/>
<path d="M1196 1593 c-6 -14 -5 -15 5 -6 7 7 10 15 7 18 -3 3 -9 -2 -12 -12z"/>
<path d="M4785 1601 c-6 -11 13 -26 22 -17 4 3 1 6 -6 6 -7 0 -9 5 -6 10 3 6
4 10 1 10 -3 0 -7 -4 -11 -9z"/>
<path d="M4820 1591 c0 -6 4 -13 10 -16 6 -3 7 1 4 9 -7 18 -14 21 -14 7z"/>
<path d="M4741 1542 c-17 -16 -31 -34 -31 -41 0 -6 -4 -11 -10 -11 -5 0 -10
-6 -10 -12 0 -7 14 2 30 21 17 18 30 38 30 42 0 5 4 9 9 9 4 0 7 -8 6 -17 -4
-33 -17 -63 -27 -63 -5 0 -6 5 -2 12 4 7 3 8 -4 4 -6 -4 -8 -14 -5 -24 3 -9 2
-14 -2 -9 -12 10 -45 -22 -38 -39 3 -8 -1 -14 -10 -14 -8 0 -21 -10 -29 -22
-9 -13 -17 -17 -21 -11 -4 6 1 20 11 31 9 11 25 30 34 41 28 33 1 24 -40 -13
-35 -33 -36 -35 -19 -53 22 -25 22 -35 0 -31 -13 2 -17 -3 -15 -16 3 -14 -1
-17 -13 -12 -12 4 -16 2 -12 -8 3 -8 -5 -19 -19 -26 -13 -8 -24 -17 -24 -22 0
-5 -6 -6 -12 -2 -7 4 -10 4 -6 -1 4 -4 2 -15 -5 -24 -6 -9 16 8 51 38 85 73
227 228 227 249 0 9 5 17 12 17 6 0 14 3 17 8 3 4 3 5 -1 2 -3 -3 -14 2 -24
11 -16 14 -20 13 -48 -14z m44 9 c3 -5 2 -12 -3 -15 -5 -3 -9 1 -9 9 0 17 3
19 12 6z m-65 -105 c0 -2 -8 -10 -17 -17 -16 -13 -17 -12 -4 4 13 16 21 21 21
13z m-70 -20 c0 -2 -8 -10 -17 -17 -16 -13 -17 -12 -4 4 13 16 21 21 21 13z"/>
<path d="M1216 1552 c-3 -5 1 -9 9 -9 8 0 12 4 9 9 -3 4 -7 8 -9 8 -2 0 -6 -4
-9 -8z"/>
<path d="M1260 1516 c0 -2 8 -10 18 -17 15 -13 16 -12 3 4 -13 16 -21 21 -21
13z"/>
<path d="M1246 1492 c-3 -5 1 -9 9 -9 8 0 12 4 9 9 -3 4 -7 8 -9 8 -2 0 -6 -4
-9 -8z"/>
<path d="M1302 1480 c2 -9 -3 -14 -12 -12 -12 3 -13 1 -2 -9 24 -25 11 -32
-15 -8 l-28 24 25 -30 c42 -50 50 -57 50 -46 0 5 -4 12 -10 16 -5 3 -7 12 -4
20 5 13 8 13 21 0 8 -8 22 -15 31 -14 12 0 10 3 -6 10 -13 5 -20 13 -17 19 4
6 1 9 -6 8 -7 -2 -13 2 -14 9 0 6 -4 15 -8 20 -5 4 -7 1 -5 -7z"/>
<path d="M1338 1399 c-10 -6 2 -24 47 -69 33 -33 65 -60 73 -60 7 0 11 -4 8
-9 -9 -14 192 -168 324 -248 255 -154 494 -245 800 -302 118 -22 291 -38 210
-19 -25 5 -64 10 -87 10 -24 0 -40 4 -37 9 3 5 -3 8 -13 7 -10 0 -31 0 -48 1
-24 1 -27 3 -15 12 12 9 12 10 -4 5 -22 -7 -88 3 -82 13 2 3 -19 7 -47 8 -29
1 -53 6 -55 12 -2 5 -14 7 -28 5 -13 -2 -24 0 -24 6 0 5 -8 10 -19 10 -10 0
-41 7 -69 16 -39 13 -49 20 -44 33 5 14 3 14 -10 3 -14 -11 -26 -8 -77 18 -34
16 -61 28 -61 25 0 -2 -15 4 -34 14 -18 11 -44 25 -57 33 -13 7 -32 19 -41 27
-14 11 -18 11 -18 1 0 -8 -8 -4 -19 9 -12 14 -25 20 -32 15 -8 -4 -9 -3 -5 4
4 7 1 12 -8 12 -9 0 -16 5 -16 11 0 5 -4 8 -9 5 -5 -3 -14 1 -21 9 -7 8 -19
15 -27 15 -8 0 -25 11 -38 24 -13 13 -26 21 -30 18 -3 -3 -17 6 -31 21 -14 15
-32 27 -41 27 -8 0 -43 23 -77 52 -33 29 -63 53 -65 55 -2 2 -2 5 1 8 7 7 77
-27 78 -37 0 -4 -8 -5 -17 -2 -16 5 -16 4 1 -10 10 -8 23 -13 27 -10 5 3 9 0
9 -6 0 -6 5 -8 10 -5 15 9 12 25 -5 25 -8 0 -15 5 -15 10 0 6 -8 14 -17 17
-10 4 -27 16 -39 27 -50 51 -114 106 -120 104 -3 -2 -12 8 -19 22 -14 25 -43
34 -67 19z m37 -9 c-8 13 -7 13 8 1 9 -7 17 -17 17 -22 0 -9 48 -59 57 -59 6
0 66 -49 61 -51 -14 -6 -47 -5 -43 1 2 4 -3 16 -11 26 -9 10 -13 12 -9 4 4
-10 2 -9 -8 2 -8 10 -18 14 -22 10 -5 -4 -6 -2 -3 3 3 6 -3 18 -14 28 -10 9
-18 15 -18 12 0 -3 -9 3 -20 12 -26 22 -29 53 -3 32 15 -12 16 -12 8 1z"/>
<path d="M4575 1369 c-10 -15 3 -25 16 -12 7 7 7 13 1 17 -6 3 -14 1 -17 -5z"/>
<path d="M4515 1314 c-10 -8 -13 -14 -6 -14 7 0 10 -4 7 -9 -4 -5 1 -8 11 -7
16 3 27 32 14 40 -3 2 -15 -2 -26 -10z m22 -9 c0 -8 -4 -12 -9 -9 -5 3 -6 10
-3 15 9 13 12 11 12 -6z"/>
<path d="M4414 1206 c-3 -9 -11 -13 -17 -9 -6 4 -7 1 -2 -6 6 -10 11 -9 23 3
9 8 13 19 9 22 -4 4 -9 -1 -13 -10z"/>
<path d="M4457 1203 c6 -16 8 -16 23 1 9 12 8 15 -8 13 -12 0 -18 -6 -15 -14z"/>
<path d="M1664 1151 c17 -17 36 -31 44 -31 19 0 73 -46 64 -54 -3 -4 2 -4 12
0 13 5 17 4 12 -4 -3 -6 3 -13 14 -17 11 -3 20 -10 20 -15 0 -4 10 -6 23 -3
12 3 19 3 15 -2 -4 -4 14 -18 40 -32 26 -14 50 -30 53 -35 4 -6 11 -8 15 -5
13 7 75 -29 66 -38 -4 -5 0 -6 10 -2 9 3 19 3 23 -1 6 -7 10 -8 36 -11 5 0 7
-6 3 -13 -4 -7 -3 -8 5 -4 14 9 53 -2 46 -14 -3 -4 5 -6 17 -3 19 4 20 3 8 -7
-12 -9 -11 -10 8 -5 13 4 28 2 35 -3 14 -11 148 -45 154 -39 2 2 -25 12 -59
21 -35 9 -72 21 -83 25 -57 23 -75 31 -135 56 -90 38 -240 118 -329 176 -40
27 -78 46 -84 42 -6 -3 -7 -1 -3 5 4 7 -7 18 -26 28 l-33 16 29 -31z"/>
<path d="M2420 798 c14 -7 28 -16 31 -21 3 -5 9 -2 12 7 5 11 1 16 -12 16 -11
0 -28 2 -38 5 -10 3 -7 0 7 -7z"/>
<path d="M2508 776 c18 -6 30 -15 26 -19 -4 -4 -2 -7 4 -7 7 0 12 4 12 9 0 4
12 7 28 5 15 -2 5 3 -23 11 -59 17 -94 19 -47 1z"/>
<path d="M2628 753 c6 -2 18 -2 25 0 6 3 1 5 -13 5 -14 0 -19 -2 -12 -5z"/>
<path d="M2708 743 c6 -2 18 -2 25 0 6 3 1 5 -13 5 -14 0 -19 -2 -12 -5z"/>
<path d="M3178 703 c7 -3 16 -2 19 1 4 3 -2 6 -13 5 -11 0 -14 -3 -6 -6z"/>
<path d="M2488 5333 c7 -3 16 -2 19 1 4 3 -2 6 -13 5 -11 0 -14 -3 -6 -6z"/>
<path d="M2408 5313 c7 -3 16 -2 19 1 4 3 -2 6 -13 5 -11 0 -14 -3 -6 -6z"/>
<path d="M2165 5250 c-3 -6 1 -7 9 -4 18 7 21 14 7 14 -6 0 -13 -4 -16 -10z"/>
<path d="M4366 4948 c3 -5 10 -6 15 -3 13 9 11 12 -6 12 -8 0 -12 -4 -9 -9z"/>
<path d="M1366 4771 c-4 -5 -2 -12 3 -15 5 -4 12 -2 15 3 4 5 2 12 -3 15 -5 4
-12 2 -15 -3z"/>
<path d="M1286 4711 c-4 -5 -2 -12 3 -15 5 -4 12 -2 15 3 4 5 2 12 -3 15 -5 4
-12 2 -15 -3z"/>
<path d="M1126 4551 c-4 -5 -2 -12 3 -15 5 -4 12 -2 15 3 4 5 2 12 -3 15 -5 4
-12 2 -15 -3z"/>
<path d="M4860 4491 c0 -10 19 -25 25 -20 1 2 -3 10 -11 17 -8 7 -14 8 -14 3z"/>
<path d="M4920 4461 c0 -6 4 -13 10 -16 6 -3 7 1 4 9 -7 18 -14 21 -14 7z"/>
<path d="M5004 4302 c2 -8 10 -19 20 -24 15 -9 16 -7 7 10 -6 11 -8 21 -6 24
3 3 -1 5 -9 5 -7 0 -13 -7 -12 -15z"/>
<path d="M5080 4221 c0 -6 4 -13 10 -16 6 -3 7 1 4 9 -7 18 -14 21 -14 7z"/>
<path d="M5065 4190 c3 -5 8 -10 11 -10 2 0 4 5 4 10 0 6 -5 10 -11 10 -5 0
-7 -4 -4 -10z"/>
<path d="M5271 2194 c0 -11 3 -14 6 -6 3 7 2 16 -1 19 -3 4 -6 -2 -5 -13z"/>
<path d="M886 1887 c3 -10 9 -15 12 -12 3 3 0 11 -7 18 -10 9 -11 8 -5 -6z"/>
<path d="M1130 1483 c0 -6 8 -17 18 -24 16 -13 16 -13 2 6 -8 11 -16 22 -17
24 -2 2 -3 0 -3 -6z"/>
<path d="M4856 1473 c-6 -14 -5 -15 5 -6 7 7 10 15 7 18 -3 3 -9 -2 -12 -12z"/>
<path d="M1216 1398 c3 -4 9 -8 15 -8 5 0 9 4 9 8 0 5 -7 9 -15 9 -8 0 -12 -4
-9 -9z"/>
<path d="M1443 1152 c1 -12 6 -18 15 -15 7 3 10 9 5 12 -4 3 -11 10 -15 15 -4
4 -6 -1 -5 -12z"/>
<path d="M3578 683 c7 -3 16 -2 19 1 4 3 -2 6 -13 5 -11 0 -14 -3 -6 -6z"/>
<path d="M5640 450 c-11 -27 -30 -33 -30 -9 0 6 5 7 12 3 7 -5 8 -3 3 5 -13
22 -28 -4 -16 -28 10 -18 9 -22 -14 -31 -14 -5 -25 -14 -25 -19 0 -5 -9 -11
-20 -14 -23 -6 -39 -39 -22 -45 7 -2 10 -8 7 -13 -4 -5 0 -6 7 -4 14 6 98 -68
98 -86 0 -5 8 -19 19 -30 18 -20 18 -20 35 5 9 14 16 30 16 36 0 5 5 10 11 10
5 0 8 4 5 9 -3 4 3 16 14 26 11 10 20 14 20 9 0 -5 4 -4 8 1 12 16 52 36 62
30 16 -10 3 28 -14 40 -13 10 -14 14 -4 19 7 3 4 4 -7 1 -24 -5 -50 9 -50 27
0 7 -7 13 -15 13 -9 0 -15 10 -15 25 0 15 -6 25 -15 25 -8 1 -14 6 -12 13 1 7
-9 12 -22 12 -17 0 -27 -9 -36 -30z m46 -2 c13 -43 44 -76 92 -99 l47 -23 -32
-9 c-38 -11 -97 -71 -110 -111 l-9 -30 -23 46 c-20 43 -82 98 -109 98 -24 0
-11 16 23 29 38 13 95 75 95 103 0 25 17 22 26 -4z"/>
<path d="M5746 252 c-3 -5 1 -9 9 -9 8 0 12 4 9 9 -3 4 -7 8 -9 8 -2 0 -6 -4
-9 -8z"/>
</g>
</svg>
